<?xml version="1.0" encoding="utf-8"?>
<!-- Generator: Adobe Illustrator 19.0.0, SVG Export Plug-In . SVG Version: 6.00 Build 0)  -->
<svg version="1.1" id="Слой_1" xmlns="http://www.w3.org/2000/svg" xmlns:xlink="http://www.w3.org/1999/xlink" x="0px" y="0px"
	 viewBox="0 0 557.6 420.2" enable-background="new 0 0 557.6 420.2" xml:space="preserve">
<linearGradient id="SVGID_1_" gradientUnits="userSpaceOnUse" x1="23.6206" y1="227.7807" x2="416.3457" y2="227.7807">
	<stop  offset="1.167315e-002" style="stop-color:#004C98"/>
	<stop  offset="1" style="stop-color:#008ED4"/>
</linearGradient>
<path fill="url(#SVGID_1_)" d="M392,197.4C326.3,85.7,164.3,67.7,124.6,64.9c-60.8,32.4-100.3,83.6-101,141.7
	C22.4,306.5,136.8,389,279,390.7c40.4,0.5,78.6-5.6,112.8-16.8C409.8,341.7,436.5,272.8,392,197.4z"/>
<linearGradient id="SVGID_2_" gradientUnits="userSpaceOnUse" x1="124.6298" y1="201.181" x2="455.7443" y2="201.181">
	<stop  offset="1.167315e-002" style="stop-color:#0055A5"/>
	<stop  offset="1" style="stop-color:#008ED4"/>
</linearGradient>
<path fill="url(#SVGID_2_)" d="M449.1,200C425,112.7,343.9,48.6,319.2,30.7c-11.7-1.3-23.7-2-35.8-2.2
	c-59.7-0.7-114.8,12.9-158.7,36.3c39.7,2.8,201.7,20.8,267.4,132.5c44.4,75.5,17.8,144.3-0.2,176.5c9.5-3.1,18.6-6.6,27.4-10.5
	C438.6,334.4,469.4,273.7,449.1,200z"/>
<linearGradient id="SVGID_3_" gradientUnits="userSpaceOnUse" x1="389.209" y1="333.5983" x2="399.512" y2="265.1137">
	<stop  offset="1.167315e-002" style="stop-color:#0095DB"/>
	<stop  offset="1" style="stop-color:#00AEEC"/>
</linearGradient>
<path fill="url(#SVGID_3_)" d="M449.1,200c20.3,73.7-10.4,134.4-29.8,163.3c18.2-8,34.8-17.6,49.5-28.5
	c29.1-29.9,56.3-74.5,51.8-134.8C513.5,102.9,389,50.8,335.8,32.9c-5.5-0.9-11-1.6-16.6-2.2C343.9,48.6,425,112.7,449.1,200z"/>
<linearGradient id="SVGID_4_" gradientUnits="userSpaceOnUse" x1="0" y1="210.1317" x2="557.566" y2="210.1317">
	<stop  offset="1.167315e-002" style="stop-color:#EEEEF7"/>
	<stop  offset="1" style="stop-color:#00A8E7"/>
</linearGradient>
<path fill="url(#SVGID_4_)" d="M299.9,1.9C146.3-13.6,12.5,67,0.8,182s103.4,220.8,256.9,236.4s287.4-65.1,299.1-180.1
	S453.4,17.5,299.9,1.9z M258.6,409.7C111.5,394.2,1.3,293.4,12.4,183.2S151.5-0.1,299,10.6c92.9,6.8,186.2,50.4,218.2,127.8
	c0,0,0,0,0,0c-32.7-52.7-99.8-92.6-181.4-105.5C389,50.8,513.5,102.9,520.6,200c4.4,60.3-22.8,104.9-51.8,134.8
	c42.9-31.8,69.4-74.7,70-122.2c0.1-6.9-0.4-13.7-1.4-20.4C588.3,331.8,405.9,425.1,258.6,409.7z"/>
<linearGradient id="SVGID_5_" gradientUnits="userSpaceOnUse" x1="216.51" y1="304.0547" x2="399.9568" y2="304.0547">
	<stop  offset="0" style="stop-color:#35338E"/>
	<stop  offset="0.5183" style="stop-color:#0753A3"/>
	<stop  offset="1" style="stop-color:#006DB8"/>
</linearGradient>
<path fill="url(#SVGID_5_)" d="M124.2,314c4.7,0,13.1,0,17.5,0c1.1,4.3,2.6,5.4,6.5,5.3c7.1-0.1,14.1,0,21.2,0
	c1.1,0,2.2-0.1,3.2-0.3c4.7-0.9,6.8-2.4,4.7-6.8c-0.5-1-1.6-2-2.6-2.4c-1.7-0.6-3.5-0.8-5.3-0.9c-7.3-0.1-14.7,0-22,0
	c-0.8,0-1.6,0-2.6,0c0-3.3,0-6.5,0-9.9c0.9,0,1.8-0.1,2.7-0.1c7.6,0,15.2,0,22.8,0c4.9,0,7.5-3.5,6.4-8.6c-0.5-2.3-1.8-1.5-3.9-2
	c-0.5-0.1-0.9-0.2-1.4-0.2c-8.2,0-16.4-0.1-24.6,0c-3.9,0.1-3.9,1.2-4.2,5.2c-4.2,0-12.3,0-16.6,0c-1-5.6,4.4-14,9.5-16.2
	c2.3-1,4.9-1.8,7.4-1.8c10.5-0.2,21-0.1,31.5,0c1.5,0,3.1,0.4,4.6,0.7c8.3,1.8,11.4,7.6,11,16.7c-0.2,4.9-2.3,8.8-7.3,10.9
	c1,0.5,1.7,0.9,2.3,1.2c3.9,2.1,6.2,5.4,6.1,10.1c0,1.8,0,3.7-0.3,5.5c-1.3,7.3-5.2,11.2-12.3,12.2c-2.1,0.3-4.3,0.4-6.4,0.5
	c-9.1,0-18.2,0.1-27.3,0c-2.9,0-5.8-0.5-8.6-1.2c-5.2-1.3-10-5-10.8-10.5C125.2,319.8,124.4,315.6,124.2,314z"/>
<linearGradient id="SVGID_6_" gradientUnits="userSpaceOnUse" x1="216.51" y1="311.6309" x2="399.9568" y2="311.6309">
	<stop  offset="0" style="stop-color:#35338E"/>
	<stop  offset="0.5183" style="stop-color:#0753A3"/>
	<stop  offset="1" style="stop-color:#006DB8"/>
</linearGradient>
<path fill="url(#SVGID_6_)" d="M236.1,317.4c4,0,8,0,12,0c0,4.7-1.1,8.4-4.8,11.7c-2.1,1.9-6.1,3.4-8.5,3.4
	c-8.2,0.2-16.4,0.2-24.6,0c-7.1-0.2-16.5-6.9-18-13.4c-0.3-1.2-0.4-2.4-0.5-3.6c-0.1-3.5-0.1-7,0-10.5c0.2-7.8,9.6-13.4,17.4-14.1
	c5.2-0.4,10.3-0.3,15.5-0.3c3.4,0,6.9-0.1,10.3,0.3c7.9,0.8,12.6,5.6,13.3,13.4c0.3,2.8,0,8.3,0,11.5c-13,0-25.9,0-38.7,0
	c0,5.3,1.4,6.1,6.5,6.1c4.7,0,9.4,0,14.1,0C233.9,322,235,321.1,236.1,317.4z M231.5,306.1c0-3-1.6-5.2-4.3-5.3
	c-4.1-0.2-8.2-0.2-12.3,0c-2.7,0.1-4.2,2.5-3.8,5.3C217.9,306.1,224.7,306.1,231.5,306.1z"/>
<linearGradient id="SVGID_7_" gradientUnits="userSpaceOnUse" x1="216.51" y1="311.428" x2="399.9568" y2="311.428">
	<stop  offset="0" style="stop-color:#35338E"/>
	<stop  offset="0.5183" style="stop-color:#0753A3"/>
	<stop  offset="1" style="stop-color:#006DB8"/>
</linearGradient>
<path fill="url(#SVGID_7_)" d="M311.5,290.4c3.9,0,12.7,0,16.6,0c0,10.1,0,29.9,0,29.9l1.9,0c0,0,11.9-18,17.6-26.6
	c0.7-1.1,1.5-2.2,2.2-3.3c6.3,0,12.5,0,18.9,0c0,13.1,0,28.9,0,42.1c-3.9,0-11.6,0-15.7,0c0-10,0-22.8,0-32.8c-0.8,0,2.7,0,2.1,0
	c-6.5,10-12.9,22.8-19.4,32.9c-6.3,0-17.7,0-24.2,0C311.5,319.4,311.5,303.6,311.5,290.4z"/>
<linearGradient id="SVGID_8_" gradientUnits="userSpaceOnUse" x1="216.51" y1="311.6971" x2="399.9568" y2="311.6971">
	<stop  offset="0" style="stop-color:#35338E"/>
	<stop  offset="0.5183" style="stop-color:#0753A3"/>
	<stop  offset="1" style="stop-color:#006DB8"/>
</linearGradient>
<path fill="url(#SVGID_8_)" d="M268.1,303.5c9.1,0,14.2,0,23.1,0c0-4.4,0-8.7,0-13.1c4.5,0,12.2,0,16.6,0c0,13,0,29.3,0,42.5
	c-4.2,0-12,0-16.5,0c0-5.5,0-14.3,0-20c-9,0-14.1,0-23.1,0c0,5.5,0,14.3,0,20c-4.5,0-12.3,0-16.7,0c0-13,0-29.3,0-42.5
	c4.3,0,12.1,0,16.6,0C268.1,294.8,268.1,299,268.1,303.5z"/>
<linearGradient id="SVGID_9_" gradientUnits="userSpaceOnUse" x1="216.51" y1="311.6678" x2="399.9568" y2="311.6678">
	<stop  offset="0" style="stop-color:#35338E"/>
	<stop  offset="0.5183" style="stop-color:#0753A3"/>
	<stop  offset="1" style="stop-color:#006DB8"/>
</linearGradient>
<path fill="url(#SVGID_9_)" d="M425.9,290.4c0,3,0,9.2,0,12.3c-6.3,0-12.9,0-19.3,0c0,10.2,0,20.1,0,30.2c-4.5,0-11.4,0-16,0
	c0-9.9,0-19.9,0-30.2c-6.5,0-12.6,0-18.9,0c0-3.1,0-9.3,0-12.4C388.7,290.4,408.7,290.4,425.9,290.4z"/>
<path fill="#FFFFFF" d="M268.7,200.5c1.8,1.9,3.2,3.6,5,5c0.5,0.4,1.9,0.1,2.8-0.2c9.9-3.2,19.9-6.3,29.7-9.8
	c11.2-4.1,22.2-8.9,33.9-11.1c7.4-1.4,14.9-2.4,22.4-3c9.8-0.9,19.6-1.3,29.4-1.8c1.2-0.1,2.4,0.2,3.5,0.6c8.2,3.6,16.3,7.3,24.5,11
	c0.2,0.1,0.5,0.2,0.7,0.3c1.7,0.7,2.4,2,1.8,3.7c-0.6,1.7-2,2-3.6,1.6c-5.1-1.1-10.3-2-15.4-3.4c-7.9-2.2-15.9-2.1-24-1.5
	c-6.6,0.5-13.3,0.8-19.9,1.3c-22.6,1.8-44.8,5.8-66.4,13.2c-4.3,1.4-8.7,2.5-13,3.8c-0.6,0.2-1.2,0.4-2.1,0.6
	c1.4,1.9,2.5,3.7,3.9,5.2c0.5,0.5,1.7,0.6,2.5,0.4c9.6-2.5,19.1-5,28.6-7.8c9.9-3,19.8-6.3,30.1-7.6c8.7-1.1,17.5-2,26.3-2.6
	c7.5-0.6,15.1-0.7,22.6-1c1,0,2,0.1,2.9,0.5c8.4,3.5,16.9,7.2,25.3,10.8c2.1,0.9,2.8,2.1,2.3,3.6c-0.5,1.7-1.8,2.3-4.1,1.9
	c-7.6-1.5-15.2-3-22.8-4.4c-2-0.4-4-0.3-6-0.2c-11.5,0.3-23,0.4-34.5,1c-14.4,0.7-28.6,3-42.7,6.1c-9,2-18,3.8-27.1,5.7
	c-1.4,0.3-2.4,0-3.4-1.1c-15.5-15.7-33.3-27.9-54-35.6c-12.1-4.5-24.6-7.3-37.3-9.3c-14.8-2.3-29.7-3.1-44.6-3.9
	c-1.1-0.1-2.4,0.3-3.4,0.9c-5.2,3.3-10.3,6.7-15.4,10c-0.7,0.4-1.4,0.9-2.1,1.1c-1.7,0.6-3.7-0.1-4.6-1.6c-0.9-1.6-0.7-3.2,0.7-4.4
	c2.2-2,4.6-4,6.9-5.9c4-3.4,7.9-6.9,12.1-10.1c1.3-1,3.3-1.8,4.9-1.7c22.1,1.8,44.3,3.5,65.9,9.2c4.2,1.1,8.1,0.9,12.2,0
	c11.2-2.4,22.4-4.4,33.6-6.7c15.8-3.3,29.8-10.3,42.1-20.8c6.2-5.3,12.8-10.1,19.4-14.9c10.1-7.3,21.3-12.2,33.7-14.3
	c13.3-2.3,26.6-4.3,40-4.7c1,0,2.2,0.1,3.1,0.6c8.5,4.1,17.1,8.3,25.6,12.6c2.7,1.3,3,4.2,0.6,5.5c-0.8,0.4-2,0.4-2.9,0.2
	c-6.4-1.7-12.8-3.5-19.2-5.5c-3.6-1.1-7.2-1.6-10.9-1.3c-9.8,0.8-19.6,1.4-29.4,2.3c-14.8,1.4-28.3,6.7-40.8,14.7
	c-8,5.2-16.1,10.1-24,15.4c-11.3,7.4-23.7,11.9-36.8,14.3c-10.8,2-21.8,3.3-32.7,5c-0.8,0.1-1.5,0.3-2.8,0.5
	c4.1,1.6,7.7,2.8,11.2,4.4c2.4,1.1,4.7,1.4,7.4,0.9c12-2.3,24-4.7,35.6-8.8c8.8-3,16.4-8,24.2-12.9c12-7.5,24.3-14.5,37.6-19.5
	c12.3-4.6,25-7.5,38-9c5.4-0.6,10.8-1.2,16.3-1.6c1.2-0.1,2.6,0.2,3.7,0.8c8.3,4,16.6,8.1,24.8,12.2c2,1,2.7,2.4,2,4
	c-0.6,1.6-2,2.2-4.2,1.5c-7.3-2-14.5-4.1-21.8-6c-1.9-0.5-3.8-0.8-5.8-0.8c-12.6,0-25.1,1-37.6,3.2c-12.5,2.2-24.1,6.7-35.2,12.7
	c-9.9,5.3-19.7,10.8-29.6,16.2c-9.3,5.1-19.5,7.5-29.9,9.3c-4.9,0.8-9.8,1.5-15.1,2.2c0.5,0.4,0.8,0.7,1.1,0.9
	c0.1,0.1,0.2,0.1,0.3,0.2c5.3,4.6,11.1,4.5,17.6,2.7c9.4-2.5,19-4.7,27.8-9c7.3-3.6,14.3-7.8,21.3-11.9c17.2-10.1,35.8-16,55.6-18.2
	c8.3-0.9,16.6-1.7,24.9-2.4c1.1-0.1,2.4,0.2,3.5,0.7c8.3,3.8,16.5,7.7,24.7,11.5c2.1,1,2.8,2.3,2.3,3.9c-0.6,1.8-1.9,2.3-4.3,1.7
	c-7.4-1.8-14.9-3.7-22.3-5.5c-0.8-0.2-1.6-0.4-2.4-0.4c-11.6,0.5-23.1,0.8-34.7,1.5c-9.8,0.6-19.5,2-28.6,5.8
	c-9.7,4.1-19.3,8.4-28.6,13.1c-13.4,6.8-27.2,12-42,14.3c-0.4,0.1-0.7,0.2-1.7,0.4c2.1,1.7,3.9,3.2,5.7,4.5c0.5,0.3,1.4,0,2.1-0.2
	c15.8-3.3,30.5-9.4,44.8-16.9c11.1-5.9,22.7-10.8,35.3-12.4c12.3-1.6,24.6-2.7,36.9-4c1.1-0.1,2.1-0.2,3.2-0.3
	c5.1-0.6,9.7,0.3,14.3,2.8c6.5,3.7,13.4,6.7,20.1,10c2,1,2.7,2.3,2.2,4c-0.6,1.6-2,2.2-4.1,1.7c-7.5-2-15.1-4.1-22.6-6.1
	c-0.9-0.2-1.9-0.5-2.8-0.4c-13,0.5-26.1,0.8-39.1,1.8c-19.4,1.6-37.9,7-55.6,15.3c-8.7,4.1-17.8,6.9-27.2,8.8
	C270.4,200,269.7,200.2,268.7,200.5z M157,220.9c-4.3,0-8.6,0-12.9,0c-0.7,0-1.5,0.1-2.2,0.4c-6.4,2.7-12.9,5.4-19.3,8.3
	c-3,1.4-4.1,3.6-3.3,5.7c0.8,2,2.8,2.6,6.2,1.7c10.6-2.6,21.2-5.9,32.4-4.5c1.5,0.2,3,0.2,4.4,0.2c18.4,0.3,36.9,1.1,55.2,2.9
	c20.6,2,40.9,5.6,60.8,11.5c2.7,0.8,5.6,1.3,8.5,1.4c3.5,0.1,7-0.3,10.5-0.4c19.4-0.8,38.7-1.6,58.1-2.4c5-0.2,10.1-0.4,15.1-0.6
	c12.2-0.3,24.5-1,36.7,0.9c4,0.6,8.1,1,12.2,1.3c2.2,0.2,3.7-1.4,3.1-3.3c-0.3-0.9-1.3-1.9-2.3-2.2c-8.4-3-16.8-5.9-25.2-8.7
	c-0.7-0.3-1.6-0.4-2.4-0.4c-8.2,0.3-16.4,0.6-24.6,1c-8.8,0.5-17.6,0.7-26.4,1.6c-18.1,1.9-36.2,4.2-54.3,6.4
	c-2.6,0.3-5,0.2-7.4-0.9c-3.9-1.8-8-3.2-12-4.7c-26.4-9.3-53.9-12.6-81.7-14.1c-9.7-0.5-19.5-0.8-29.3-1.1
	C157,221,157,221,157,220.9z M422.7,229.9c0-1.6-1.1-2.3-2.4-2.9c-8.5-3.8-16.9-7.7-25.4-11.4c-0.7-0.3-1.6-0.5-2.3-0.5
	c-11.4,0.6-22.7,1.2-34.1,1.8c-12.6,0.6-25,2.4-37.3,5.2c-11.9,2.7-23.9,5.3-35.8,8c-1.5,0.3-2.5,0-3.6-1
	c-8.2-7.1-17.2-12.9-26.9-17.7c-19.1-9.4-39.5-14-60.4-16.5c-9.5-1.1-19-1.9-28.5-2.7c-7.1-0.6-14.2-0.9-21.4-1.1
	c-1.2,0-2.6,0.4-3.6,1.1c-6,3.7-11.9,7.6-17.8,11.5c-1,0.7-2.1,1.4-2.6,2.4c-0.5,1.1-0.9,2.8-0.4,3.7c0.6,1,2.1,1.6,3.4,2
	c0.8,0.2,1.8-0.3,2.6-0.7c5.1-2.4,10.2-4.9,15.4-7.2c1.5-0.6,3.2-1,4.8-0.9c11.9,0.5,23.8,0.7,35.7,1.7c11.3,0.9,22.6,2.2,33.8,4.1
	c23.4,3.9,45.2,12.4,65.2,25.4c1.7,1.1,3.2,1.7,5.2,1.3c1.4-0.3,2.9-0.3,4.4-0.5c11.9-1.1,23.8-2.3,35.8-3.4
	c11.1-1,22.1-1.9,33.2-2.6c10.1-0.6,20.2-1,30.2-1.3c2-0.1,4-0.1,6,0.3c4.4,0.8,8.8,1.9,13.2,2.9c3.5,0.8,7.1,1.5,10.3,2.2
	C421.4,232.7,422.7,231.6,422.7,229.9z M272.4,262.2c33.6,0,67.2,0,100.8,0c15.1,0,30.3,0,45.4,0c2.5,0,3.8-1,4-2.8
	c0.1-1.8-1-3.1-3.4-3.6c-2.2-0.5-4.3-1-6.5-1.4c-8.9-1.9-17.6-4.4-26.9-3.5c-8.8,0.8-17.6,0.9-26.4,1.4c-12.9,0.6-25.8,1.3-38.7,2
	c-6.6,0.3-13.2,0.7-19.8,1c-6.1,0.3-12.3,1.1-18.3,0.8c-12.7-0.6-25.4-2-38-2.7c-17.9-1-35.9-1.8-53.9-2.3
	c-15.1-0.4-30.2-0.1-45.2-0.1c-1.3,0-2.6,0.2-3.8,0.5c-5,1.2-9.9,2.4-14.9,3.7c-3,0.8-4.6,2.3-4.2,4.3c0.4,2,1.1,2.9,4.9,2.9
	C175.8,262.1,224.1,262.2,272.4,262.2C272.4,262.2,272.4,262.2,272.4,262.2z M420.4,103.9c-7.4-3.8-15-7.3-22.4-11.3
	c-3.2-1.7-6.3-2.2-9.7-1.8c-11.5,1.6-23.1,3-34.5,4.9c-9.7,1.6-19.2,4.3-27.8,9.3c-7.8,4.6-14.6,10.5-21.4,16.5
	c-7.5,6.7-15.3,13.2-23.9,18.5c-14,8.5-29.5,13-45.4,16.2c-5.8,1.2-11.6,2.5-17.3,3.8c-0.5,0.1-1,0.9-1.4,1.3
	c0.5,0.2,1.1,0.7,1.6,0.6c12.4-2.1,24.8-4.1,37.2-6.3c15.7-2.8,29.6-9.1,42-19.4c8.4-7.1,17.6-13.3,26.7-19.4
	c6.2-4.2,13.1-7.5,20.5-9.2c14.6-3.3,29.5-4.2,44.5-4.8c3.7-0.2,7.2,0.6,10.7,1.6c6.2,1.9,12.5,3.6,18.8,5.3
	c2.3,0.6,4.2-0.8,4.2-3.8C422.3,105.6,421.5,104.5,420.4,103.9z M250.5,144.7c12.6-2.9,24.7-7.5,35.1-15.3
	c6.9-5.1,13.5-10.7,20-16.4c14.6-12.7,31.2-20.8,50.3-24c11.6-1.9,23.3-3.2,35.1-3.7c1.5-0.1,3.1,0.1,4.6,0.5c7.5,2,15,4.2,22.6,6.2
	c0.9,0.2,2.1,0.4,2.7,0c0.9-0.6,2-1.8,1.9-2.7c-0.1-1.1-1.1-2.5-2.1-3c-7.4-3.8-14.9-7.2-22.2-11.2c-3.5-1.9-6.9-2.3-10.7-2
	c-10.7,0.9-21.3,2.9-31.9,4.8c-14.4,2.7-27.6,7.9-38.8,17.3c-9.6,8.1-18.9,16.6-28.3,25c-5,4.5-10.2,8.7-16.2,11.9
	c-10.3,5.5-21.5,8.5-32.7,11.3c-7.1,1.8-14.2,3.5-21.3,5.3c-1.2,0.3-2.3,0.6-1.4,2.8C228.2,149.2,239.4,147.2,250.5,144.7z
	 M120.4,320.5c0.8,5.2,3.6,8.8,8.9,10c2.8,0.7,5.7,1.1,8.6,1.1c9.1,0.1,18.2,0.1,27.3,0c2.1,0,4.3-0.2,6.4-0.4
	c7.1-0.9,11-4.7,12.3-11.7c0.3-1.7,0.3-3.5,0.3-5.2c0.1-4.5-2.1-7.6-6.1-9.7c-0.6-0.3-1.2-0.6-2.3-1.1c5-2,7.1-5.7,7.3-10.4
	c0.4-8.7-2.8-14.3-11-16c-1.5-0.3-3-0.7-4.6-0.7c-10.5-0.1-21-0.2-31.5,0c-2.5,0-5.1,0.8-7.4,1.7c-5.1,2.1-8.2,8.1-7.2,13.4
	c4.2,0,8.5,0,12.8,0c1.3-4.1,1.8-4.8,5.7-4.9c8.2-0.2,16.4-0.1,24.6,0c0.5,0,0.9,0.1,1.4,0.2c2.1,0.5,3.4,1.7,3.9,3.9
	c1.1,4.8-1.5,8.2-6.4,8.2c-7.6,0.1-15.2,0-22.8,0c-0.9,0-1.8,0.1-2.7,0.1c0,3.3,0,6.3,0,9.5c1,0,1.8,0,2.6,0c7.3,0,14.7-0.1,22,0
	c1.8,0,3.6,0.3,5.3,0.8c1,0.3,2.1,1.3,2.6,2.3c2.1,4.3,0,8.4-4.7,9.2c-1,0.2-2.1,0.3-3.2,0.3c-7.1,0-14.1-0.1-21.2,0
	c-3.9,0.1-6.9-1.1-8-5.2c-4.4,0-8.7,0-13.4,0C120.1,317.7,120.1,319.1,120.4,320.5z M225,323c-4.7,0-9.4,0-14.1,0
	c-5.1,0-7.6-3.4-6.5-8.8c12.8,0,25.8,0,38.7,0c0-3.2,0.2-6,0-8.8c-0.8-7.9-5.4-12.6-13.3-13.4c-3.4-0.4-6.9-0.3-10.3-0.3
	c-5.2,0-10.4-0.1-15.5,0.3c-7.8,0.6-12.9,6.3-13.1,14.1c-0.1,3.5,0,7,0,10.5c0,1.2,0.2,2.4,0.5,3.6c1.5,6.5,6.6,10.8,13.7,10.9
	c8.2,0.2,16.4,0.2,24.6,0c2.4-0.1,4.8-0.7,7-1.6c4.6-1.8,6.2-6.4,6.2-11.1c-4,0-8,0-12,0C230,322.2,228.9,323,225,323z M204.5,306.8
	c-0.6-3.6,1.4-6.6,4.8-6.8c5.2-0.2,10.5-0.2,15.7,0c3.5,0.1,5.6,2.9,5.5,6.8C221.9,306.8,213.2,306.8,204.5,306.8z M312,331
	c6.5,0,12.8,0,19.1,0c6.5-10.1,12.9-20.1,19.4-30.1c0.6,0,1.1,0,1.9,0c0,10.1,0,20.1,0,30.1c4.1,0,7.9,0,11.7,0
	c0-13.2,0-26.2,0-39.3c-6.4,0-12.5,0-18.9,0c-0.7,1.1-1.5,2.2-2.2,3.3c-5.7,8.6-17.6,26.6-17.6,26.6l-1.9,0c0,0,0-19.8,0-29.9
	c-4,0-7.6,0-11.6,0C312,304.9,312,317.9,312,331z M263,291.8c-4.5,0-8.8,0-13,0c0,13.2,0,26.2,0,39.2c4.4,0,8.6,0,13.2,0
	c0-5.7,0-11.2,0-16.7c9,0,17.6,0,26.6,0c0,5.7,0,11.2,0,16.7c4.5,0,8.7,0,13,0c0-13.2,0-26.2,0-39.2c-4.4,0-8.6,0-13.1,0
	c0,4.4,0,8.7,0,13.1c-8.9,0-17.6,0-26.6,0C263,300.3,263,296.1,263,291.8z M370.7,291.7c0,3.1,0,5.9,0,9.1c6.3,0,12.5,0,18.9,0
	c0,10.2,0,20.2,0,30.2c4.6,0,8.8,0,13.3,0c0-10.1,0-20,0-30.2c6.4,0,12.6,0,18.9,0c0-3.1,0-6,0-9
	C404.6,291.7,387.6,291.7,370.7,291.7z"/>
</svg>
