<?xml version="1.0" encoding="utf-8"?><svg xmlns="http://www.w3.org/2000/svg" xmlns:xlink="http://www.w3.org/1999/xlink"><symbol viewBox="0 0 512 512" id="arrow-down"><path d="M509.121 125.966a9.821 9.821 0 0 0-13.893 0L256.005 365.194 16.771 125.966a9.821 9.821 0 0 0-13.893 0 9.821 9.821 0 0 0 0 13.893l246.18 246.175a9.819 9.819 0 0 0 13.893 0l246.17-246.175a9.821 9.821 0 0 0 0-13.893z"/></symbol><symbol viewBox="0 0 512 512" id="arrow-right"><path d="M386.035 249.056L139.858 2.878c-3.838-3.838-10.055-3.838-13.893 0s-3.838 10.055 0 13.893l239.231 239.231-239.231 239.227a9.821 9.821 0 0 0 0 13.893c1.919 1.919 4.433 2.878 6.946 2.878s5.028-.96 6.946-2.878l246.178-246.173a9.823 9.823 0 0 0 0-13.893z"/></symbol><symbol viewBox="0 0 240.823 240.823" id="arrow-right-bold"><path d="M183.189 111.816L74.892 3.555c-4.752-4.74-12.451-4.74-17.215 0-4.752 4.74-4.752 12.439 0 17.179l99.707 99.671-99.695 99.671c-4.752 4.74-4.752 12.439 0 17.191 4.752 4.74 12.463 4.74 17.215 0l108.297-108.261c4.68-4.691 4.68-12.511-.012-17.19z"/></symbol><symbol viewBox="0 0 54.5 54.6" id="blog-build"><path d="M40.6 34.8l4.8-2.3L51.5 45l-4.8 2.3z"/><path d="M45 33.8l5.2 10.7-3 1.5L42 35.3l3-1.5m.9-2.7l-6.6 3.2 7 14.3 6.6-3.2-7-14.3zm-5.2 16.5H4.1V4.7h14.6v2H6.1v38.9h34.6z"/><path d="M21.9 35.2l-1.4-.9 1.4-30.9 1.6-.7 24 19.7-.3 1.7-12.5 5.6-.8-1.8 11-5L23.8 5.5l-1.2 27.2 6.7-2.9.8 1.9z"/><path d="M43.1 35.9l-2.7-4.4-5.8-1.6-.6-.5-5.6-11.7 1.8-.9 5.4 11.3 5.7 1.6.6.4 2.9 4.7z"/></symbol><symbol viewBox="0 0 54.5 54.6" id="blog-cong"><path d="M23.6 8h7v38h-7zm-22 0h20v2.4H4v6.9h17.6v1H7.1v25.4h14.5V46H4.7V19.6H1.6zm51 0h-20v2.4h17.6v6.9H32.6v1h14.5v25.4H32.6V46h16.9V19.6h3.1z"/></symbol><symbol viewBox="0 0 54.5 54.6" id="blog-interview"><path d="M22.8 9.1h9.9v2.5h-9.9z"/><path d="M31.7 10.1v.5h-7.9v-.5h7.9m2-2H21.8v4.5h11.9V8.1zM43.7 3.8l-1.2 1.1 7.3 7.1 1.2-1.2zM26.1 21l-2.7 9.6 9.9-2.6zm15-14.7L27.5 19.6l7.3 7.1 13.6-13.3z"/><path d="M46.2 50.7H7V9.3h27.8v2H9v37.4h35.2V20.2h2z"/></symbol><symbol viewBox="0 0 54.5 54.6" id="blog-news"><path d="M47.6 18.6h-12V6.1h2v10.5h10zM16.2 17h14.2v2H16.2zm0 6.3h23.7v2H16.2zm0 6h23.7v2H16.2z"/><path d="M40.5 52.5L27.8 44H6.3V5.6h31.2l11.8 10.3V44h-8.9v8.5zM8.3 42h20.1l10.1 6.8V42h8.9V16.7L36.8 7.6H8.3V42z"/></symbol><symbol viewBox="-270 393.3 54.5 54.6" id="blog-spec"><path d="M-243.3 429.7l-.9-29h4.9l-.9 29z"/><path d="M-240.3 401.7l-.9 27h-1.1l-.9-27h2.9m2-2h-7l1 31h5l1-31z"/><circle cx="-241.8" cy="439.2" r="2.5"/><path d="M-241.8 437.7c.8 0 1.5.7 1.5 1.5s-.7 1.5-1.5 1.5-1.5-.7-1.5-1.5.7-1.5 1.5-1.5m0-2c-1.9 0-3.5 1.6-3.5 3.5s1.6 3.5 3.5 3.5 3.5-1.6 3.5-3.5-1.5-3.5-3.5-3.5zM-249.1 440.5h-13.3v-36.8h13.3v2h-11.3v32.8h11.3zM-221.4 440.5h-13.3v-2h11.3v-32.8h-11.3v-2h13.3z"/></symbol><symbol viewBox="0 0 139.4 44.7" id="dorohovdesign"><path d="M52.2 19.5V8.1H57c3.6 0 6.1 2.1 6.1 5.7 0 3.5-2.6 5.7-6.1 5.7h-4.8zm7.9-5.7c0-1.8-1.1-3.1-3.1-3.1h-1.9v6.2H57c2 0 3.1-1.4 3.1-3.1m4.1 0c0-3.4 2.6-5.9 6.1-5.9 3.5 0 6.1 2.4 6.1 5.9 0 3.5-2.6 5.9-6.1 5.9-3.5 0-6.1-2.4-6.1-5.9m9.2 0c0-1.9-1.2-3.3-3.1-3.3-1.9 0-3.1 1.4-3.1 3.3 0 1.8 1.2 3.3 3.1 3.3 1.9 0 3.1-1.4 3.1-3.3m11 5.7l-1.9-3.8H81v3.8h-2.9V8.1h5.7c2.5 0 3.9 1.7 3.9 3.8 0 2-1.2 3-2.3 3.4l2.3 4.2h-3.3zm.3-7.6c0-.8-.6-1.2-1.4-1.2H81v2.4h2.3c.8 0 1.4-.4 1.4-1.2m4.2 1.9c0-3.4 2.6-5.9 6.1-5.9 3.5 0 6.1 2.4 6.1 5.9 0 3.5-2.6 5.9-6.1 5.9-3.5 0-6.1-2.4-6.1-5.9m9.1 0c0-1.9-1.2-3.3-3.1-3.3-1.9 0-3.1 1.4-3.1 3.3 0 1.8 1.2 3.3 3.1 3.3 1.9 0 3.1-1.4 3.1-3.3m12.4 5.7v-4.6h-4.7v4.6h-3V8.1h3v4.3h4.7V8.1h2.9v11.4zm4.6-5.7c0-3.4 2.6-5.9 6.1-5.9 3.5 0 6.1 2.4 6.1 5.9 0 3.5-2.6 5.9-6.1 5.9-3.5 0-6.1-2.4-6.1-5.9m9.2 0c0-1.9-1.2-3.3-3.1-3.3-1.9 0-3.1 1.4-3.1 3.3 0 1.8 1.2 3.3 3.1 3.3 1.9 0 3.1-1.4 3.1-3.3m7.3 5.7l-4.3-11.4h3.3l2.8 8.2 2.8-8.2h3.3l-4.2 11.4zm-79.3 17V25.1H57c3.6 0 6.1 2.1 6.1 5.7 0 3.5-2.6 5.7-6.1 5.7h-4.8zm7.9-5.7c0-1.8-1.1-3.1-3.1-3.1h-1.9v6.2H57c2 0 3.1-1.4 3.1-3.1m4.7 5.7V25.1h8.3v2.6h-5.3v1.8H73V32h-5.2v1.9h5.3v2.6zm9.6-1.6l1.5-2.2c.8.8 2.1 1.5 3.6 1.5 1 0 1.6-.4 1.6-.9 0-1.5-6.4-.3-6.4-4.7 0-1.9 1.6-3.6 4.5-3.6 1.8 0 3.4.5 4.6 1.6l-1.6 2.1c-1-.8-2.2-1.2-3.3-1.2-.8 0-1.2.3-1.2.8 0 1.4 6.4.4 6.4 4.6 0 2.3-1.7 3.8-4.7 3.8-2.2 0-3.8-.7-5-1.8m11.5-9.8h2.9v11.3h-2.9zm4.7 5.7c0-3.6 2.8-5.9 6.1-5.9 2.5 0 4.1 1.3 4.8 2.8L99.1 29c-.4-.7-1.3-1.4-2.4-1.4-1.9 0-3.2 1.4-3.2 3.3s1.3 3.3 3.2 3.3c.8 0 1.7-.3 2.1-.7v-.9h-2.6V30h5.5v4.5c-1.2 1.3-2.9 2.2-5 2.2-3.4 0-6.1-2.3-6.1-5.9m20.9 5.7l-4.8-6.6v6.6h-2.9V25.1h3l4.6 6.3v-6.3h2.9v11.4zM17.7 0H0v44.7h17.8c15 0 24.6-8.8 24.6-22.4C42.4 8.7 32.7 0 17.7 0m-.4 35.7h-8V9.5h8c9.3 0 15.7 3.7 15.7 12.7.1 7.5-5.8 13.5-15.7 13.5"/><path d="M19.1 17H17v10.6h2c4 0 6.4-2.4 6.4-5.4 0-3.7-2.6-5.2-6.3-5.2"/></symbol><symbol viewBox="0 0 96.124 96.123" id="fb"><path d="M72.089.02L59.624 0C45.62 0 36.57 9.285 36.57 23.656v10.907H24.037a1.96 1.96 0 0 0-1.96 1.961v15.803a1.96 1.96 0 0 0 1.96 1.96H36.57v39.876a1.96 1.96 0 0 0 1.96 1.96h16.352a1.96 1.96 0 0 0 1.96-1.96V54.287h14.654a1.96 1.96 0 0 0 1.96-1.96l.006-15.803a1.963 1.963 0 0 0-1.961-1.961H56.842v-9.246c0-4.444 1.059-6.7 6.848-6.7l8.397-.003a1.96 1.96 0 0 0 1.959-1.96V1.98A1.96 1.96 0 0 0 72.089.02z"/></symbol><symbol viewBox="0 0 40 40" id="filter-build"><style>.st0{fill:#d8a406}.st1{fill:none;stroke:#d8a406;stroke-width:.9643;stroke-miterlimit:100}.st1,.st2{fill-rule:evenodd;clip-rule:evenodd}.st2,.st3{fill:#d8a508}</style><path d="M13.4 4.1l5 5.1v24.6h-5V4.1M13 2.3l-.7.4v32h7v-26L13 2.3zM31.4 9.8v7h-2v-7h2m1-1h-4v9h4v-9z"/><path d="M30.605 16.635l.707.707-3.819 3.819-.707-.708zM32.055 17.337l.707.708-4.596 4.596-.707-.707zM33.055 18.337l.707.708-4.596 4.596-.707-.707zM33.55 19.808l.707.707-3.606 3.606-.707-.707z"/><path d="M30.6 24.4c-2.2 0-3.9-1.8-3.9-3.9 0-2.2 1.8-3.9 3.9-3.9 2.2 0 3.9 1.8 3.9 3.9 0 2.2-1.8 3.9-3.9 3.9zm0-6.8c-1.6 0-2.9 1.3-2.9 2.9 0 1.6 1.3 2.9 2.9 2.9s2.9-1.3 2.9-2.9c-.1-1.6-1.4-2.9-2.9-2.9zM4.4 8.6h31v2.3h-31zM24.4 30.8h11.9v4H24.4z"/><path d="M28.9 23.9h3v2.9h-3zM9.9 34.3h12v1.5h-12z"/><path d="M7.9 35.3h16v3h-16zM30.4 26.2l3.5 3.5h-7.1l3.6-3.5m0-1.4l-6 6h11.9l-5.9-6zM12.6 2.9l15.9 4.7H7.1l5.5-4.7m-.2-1.1l-8 6.8h31l-23-6.8z"/><path d="M13.4 4.1l5 5.1v26h-5V4.1m-1-1.8v33.9h7V8.7l-5.8-5.9-1.2-.5z"/><path d="M15.8 36.6l-.7-.7 2.5-2.6H13l-.4-.9 5-5h-4.7l-.4-.8 5.1-5.1h-4.8l-.4-.9 5.2-5.2h-4.8l-.4-.9 4.7-4.6h-4.2v-1h5.4l.3.9-4.6 4.6h4.8l.4.8-5.2 5.3h4.8l.4.8-5.1 5.1h4.7l.4.9-5 5h4.6l.4.8z"/></symbol><symbol viewBox="0 0 41.3 41.4" id="filter-ready"><style>.st0{fill-rule:evenodd;clip-rule:evenodd}.st0,.st1{fill:#265ba4}</style><path d="M26.1 9.8V41h4.3V7.7zM6.2 9.4v-3l10-5.8V4zM6.2 12l10-4.9v3.4l-10 4.4zM6.2 20.8v-3.3l10-4v3.9zM6.2 26.7v-3.3l10-2.9v3.9zM6.2 32.6v-3.3l10-1.9v3.9zM6.2 40.7v-5.5l10-.9v6.5zM17.5 41v-6.5l7.3.7v5.6zM17.5 31.4v-3.9l7.3 1.6v3.4zM17.5 24.5v-3.9l7.3 2.5v3.4zM17.5 17.5v-3.9l7.3 3.5v3.4zM17.5 10.6V7.1l7.3 4.4v3zM17.5 4.1V.6l7.3 5.2v3zM31.3 10.5V7.7l6.1 4.3v2.5zM31.3 15.9V13l6.1 3.6v2.5zM31.3 21.6v-3.2l6.1 2.9v2.8l-6-2.4zM31.3 27.4v-3.3l6.1 2.1V29zM31.3 33.1v-3.2l6.1 1.3V34zM31.3 41v-5.4l6.1.6v4.6z"/></symbol><symbol viewBox="0 0 97.395 97.395" id="inst"><path d="M12.501 0h72.393c6.875 0 12.5 5.09 12.5 12.5v72.395c0 7.41-5.625 12.5-12.5 12.5H12.501C5.624 97.395 0 92.305 0 84.895V12.5C0 5.09 5.624 0 12.501 0zm58.447 10.821a4.395 4.395 0 0 0-4.383 4.385v10.495a4.396 4.396 0 0 0 4.383 4.385h11.008a4.398 4.398 0 0 0 4.385-4.385V15.206a4.397 4.397 0 0 0-4.385-4.385H70.948zm15.439 30.367h-8.572a28.486 28.486 0 0 1 1.25 8.355c0 16.2-13.556 29.332-30.275 29.332-16.718 0-30.272-13.132-30.272-29.332 0-2.904.438-5.708 1.25-8.355h-8.945v41.141a3.884 3.884 0 0 0 3.872 3.872h67.822a3.883 3.883 0 0 0 3.872-3.872V41.188h-.002zM48.789 29.533c-10.802 0-19.56 8.485-19.56 18.953s8.758 18.953 19.56 18.953c10.803 0 19.562-8.485 19.562-18.953s-8.758-18.953-19.562-18.953z"/></symbol><symbol viewBox="0 0 95.481 95.481" id="ok"><path d="M43.041 67.254c-7.402-.772-14.076-2.595-19.79-7.064-.709-.556-1.441-1.092-2.088-1.713-2.501-2.402-2.753-5.153-.774-7.988 1.693-2.426 4.535-3.075 7.489-1.682.572.27 1.117.607 1.639.969 10.649 7.317 25.278 7.519 35.967.329 1.059-.812 2.191-1.474 3.503-1.812 2.551-.655 4.93.282 6.299 2.514 1.564 2.549 1.544 5.037-.383 7.016-2.956 3.034-6.511 5.229-10.461 6.761-3.735 1.448-7.826 2.177-11.875 2.661.611.665.899.992 1.281 1.376 5.498 5.524 11.02 11.025 16.5 16.566 1.867 1.888 2.257 4.229 1.229 6.425-1.124 2.4-3.64 3.979-6.107 3.81-1.563-.108-2.782-.886-3.865-1.977-4.149-4.175-8.376-8.273-12.441-12.527-1.183-1.237-1.752-1.003-2.796.071-4.174 4.297-8.416 8.528-12.683 12.735-1.916 1.889-4.196 2.229-6.418 1.15-2.362-1.145-3.865-3.556-3.749-5.979.08-1.639.886-2.891 2.011-4.014 5.441-5.433 10.867-10.88 16.295-16.322.359-.362.694-.746 1.217-1.305z"/><path d="M47.55 48.329c-13.205-.045-24.033-10.992-23.956-24.218C23.67 10.739 34.505-.037 47.84 0c13.362.036 24.087 10.967 24.02 24.478-.068 13.199-10.971 23.897-24.31 23.851zm12.001-24.186c-.023-6.567-5.253-11.795-11.807-11.801-6.609-.007-11.886 5.316-11.835 11.943.049 6.542 5.324 11.733 11.896 11.709 6.552-.023 11.768-5.285 11.746-11.851z"/></symbol><symbol viewBox="0 0 304.36 304.36" id="vk"><path d="M261.945 175.576c10.096 9.857 20.752 19.131 29.807 29.982 4 4.822 7.787 9.798 10.684 15.394 4.105 7.955.387 16.709-6.746 17.184l-44.34-.02c-11.436.949-20.559-3.655-28.23-11.474-6.139-6.253-11.824-12.908-17.727-19.372-2.42-2.642-4.953-5.128-7.979-7.093-6.053-3.929-11.307-2.726-14.766 3.587-3.523 6.421-4.322 13.531-4.668 20.687-.475 10.441-3.631 13.186-14.119 13.664-22.414 1.057-43.686-2.334-63.447-13.641-17.422-9.968-30.932-24.04-42.691-39.971-22.895-31.021-40.428-65.108-56.186-100.15C-2.01 76.458.584 72.22 9.295 72.07c14.465-.281 28.928-.261 43.41-.02 5.879.086 9.771 3.458 12.041 9.012 7.826 19.243 17.402 37.551 29.422 54.521 3.201 4.518 6.465 9.036 11.113 12.216 5.142 3.521 9.057 2.354 11.476-3.374 1.535-3.632 2.207-7.544 2.553-11.434 1.146-13.383 1.297-26.743-.713-40.079-1.234-8.323-5.922-13.711-14.227-15.286-4.238-.803-3.607-2.38-1.555-4.799 3.564-4.172 6.916-6.769 13.598-6.769h50.111c7.889 1.557 9.641 5.101 10.721 13.039l.043 55.663c-.086 3.073 1.535 12.192 7.07 14.226 4.43 1.448 7.35-2.096 10.008-4.905 11.998-12.734 20.561-27.783 28.211-43.366 3.395-6.852 6.314-13.968 9.143-21.078 2.096-5.276 5.385-7.872 11.328-7.757l48.229.043c1.43 0 2.877.021 4.262.258 8.127 1.385 10.354 4.881 7.844 12.817-3.955 12.451-11.65 22.827-19.174 33.251-8.043 11.129-16.645 21.877-24.621 33.072-7.328 10.223-6.746 15.376 2.357 24.255zm0 0" fill-rule="evenodd" clip-rule="evenodd"/></symbol></svg>