<?xml version="1.0" encoding="utf-8"?><svg xmlns="http://www.w3.org/2000/svg" xmlns:xlink="http://www.w3.org/1999/xlink"><symbol viewBox="0 0 490 490" id="address"><path d="M245.001 0C156.458 0 84.424 71.987 84.424 160.472c0 85.04 145.93 315.146 152.142 324.9a10.002 10.002 0 0 0 16.869 0c6.212-9.754 152.141-239.861 152.141-324.9C405.576 71.987 333.542 0 245.001 0zm0 461.127c-13.207-21.363-40.009-65.587-66.549-114.588-48.429-89.418-74.027-153.758-74.027-186.067C104.424 83.015 167.487 20 245.001 20s140.575 63.015 140.575 140.472c0 32.309-25.599 96.649-74.027 186.067-26.54 49-53.342 93.225-66.548 114.588z"/><path d="M244.999 76.071c-41.884 0-75.959 33.149-75.959 73.894 0 40.744 34.075 73.891 75.959 73.891s75.959-33.147 75.959-73.891c0-40.745-34.075-73.894-75.959-73.894zm0 127.784c-30.855 0-55.959-24.175-55.959-53.891 0-29.717 25.104-53.894 55.959-53.894s55.959 24.177 55.959 53.894c0 29.716-25.103 53.891-55.959 53.891z"/></symbol><symbol viewBox="0 0 512 512" id="arrow-down"><path d="M509.121 125.966a9.821 9.821 0 0 0-13.893 0L256.005 365.194 16.771 125.966a9.821 9.821 0 0 0-13.893 0 9.821 9.821 0 0 0 0 13.893l246.18 246.175a9.819 9.819 0 0 0 13.893 0l246.17-246.175a9.821 9.821 0 0 0 0-13.893z"/></symbol><symbol viewBox="0 0 451.847 451.847" id="arrow-left-900"><path d="M97.141 225.92c0-8.095 3.091-16.192 9.259-22.366L300.689 9.27c12.359-12.359 32.397-12.359 44.751 0 12.354 12.354 12.354 32.388 0 44.748L173.525 225.92l171.903 171.909c12.354 12.354 12.354 32.391 0 44.744-12.354 12.365-32.386 12.365-44.745 0l-194.29-194.281c-6.167-6.177-9.252-14.274-9.252-22.372z"/></symbol><symbol viewBox="0 0 512 512" id="arrow-right"><path d="M386.035 249.056L139.858 2.878c-3.838-3.838-10.055-3.838-13.893 0s-3.838 10.055 0 13.893l239.231 239.231-239.231 239.227a9.821 9.821 0 0 0 0 13.893c1.919 1.919 4.433 2.878 6.946 2.878s5.028-.96 6.946-2.878l246.178-246.173a9.823 9.823 0 0 0 0-13.893z"/></symbol><symbol viewBox="0 0 451.846 451.847" id="arrow-right-900"><path d="M345.441 248.292L151.154 442.573c-12.359 12.365-32.397 12.365-44.75 0-12.354-12.354-12.354-32.391 0-44.744L278.318 225.92 106.409 54.017c-12.354-12.359-12.354-32.394 0-44.748 12.354-12.359 32.391-12.359 44.75 0l194.287 194.284c6.177 6.18 9.262 14.271 9.262 22.366 0 8.099-3.091 16.196-9.267 22.373z"/></symbol><symbol viewBox="0 0 240.823 240.823" id="arrow-right-bold"><path d="M183.189 111.816L74.892 3.555c-4.752-4.74-12.451-4.74-17.215 0-4.752 4.74-4.752 12.439 0 17.179l99.707 99.671-99.695 99.671c-4.752 4.74-4.752 12.439 0 17.191 4.752 4.74 12.463 4.74 17.215 0l108.297-108.261c4.68-4.691 4.68-12.511-.012-17.19z"/></symbol><symbol viewBox="0 0 54.5 54.6" id="blog-build"><path d="M40.6 34.8l4.8-2.3L51.5 45l-4.8 2.3z"/><path d="M45 33.8l5.2 10.7-3 1.5L42 35.3l3-1.5m.9-2.7l-6.6 3.2 7 14.3 6.6-3.2-7-14.3zm-5.2 16.5H4.1V4.7h14.6v2H6.1v38.9h34.6z"/><path d="M21.9 35.2l-1.4-.9 1.4-30.9 1.6-.7 24 19.7-.3 1.7-12.5 5.6-.8-1.8 11-5L23.8 5.5l-1.2 27.2 6.7-2.9.8 1.9z"/><path d="M43.1 35.9l-2.7-4.4-5.8-1.6-.6-.5-5.6-11.7 1.8-.9 5.4 11.3 5.7 1.6.6.4 2.9 4.7z"/></symbol><symbol viewBox="0 0 54.5 54.6" id="blog-cong"><path d="M23.6 8h7v38h-7zm-22 0h20v2.4H4v6.9h17.6v1H7.1v25.4h14.5V46H4.7V19.6H1.6zm51 0h-20v2.4h17.6v6.9H32.6v1h14.5v25.4H32.6V46h16.9V19.6h3.1z"/></symbol><symbol viewBox="-267.8 395.5 50 50.1" id="blog-copyright"><style>.st0{fill:#010202}</style><path d="M-237.1 434.7h-10.8v-3.5l.9-.1c.5-.1.7-.2.7-.2s.1-.3.1-1.1v-9.9c0-.5 0-.7-.1-.8-.1 0-.3-.1-.7-.1h-1v-3.6h1c1.1-.1 2.2-.1 3.4-.2l3.6-.3 1.2-.1v15.1c0 .8.1 1 .1 1.1 0 0 .2.1.7.2l.9.1v3.4zm-7.9-2.2h5.1c-.2-.1-.3-.2-.4-.4-.4-.5-.6-1.3-.6-2.4V417c-.9.1-1.7.2-2.5.2-.5 0-1.1.1-1.6.1l.3.3c.5.5.7 1.2.7 2.3v9.9c0 1.1-.2 1.9-.6 2.4-.1.1-.2.2-.4.3zm2.1-18.3c-1.1 0-2.1-.3-2.8-.9-.8-.7-1.2-1.5-1.2-2.6 0-1 .4-1.9 1.2-2.6.7-.7 1.7-1 2.8-1 1.1 0 2 .3 2.8 1 .8.7 1.2 1.6 1.2 2.6s-.4 1.9-1.2 2.6c-.7.6-1.6.9-2.8.9zm0-5c-.6 0-1 .1-1.4.5-.3.3-.5.6-.5 1s.1.7.4 1c.3.3.8.4 1.4.4s1.1-.1 1.4-.4c.3-.2.4-.5.4-.9s-.1-.7-.5-1c-.2-.4-.6-.6-1.2-.6z"/><path d="M-221.5 441.9h-42v-42h42v42zm-39.9-2.1h37.8v-37.7h-37.8v37.7z"/></symbol><symbol viewBox="0 0 54.5 54.6" id="blog-interview"><path d="M22.8 9.1h9.9v2.5h-9.9z"/><path d="M31.7 10.1v.5h-7.9v-.5h7.9m2-2H21.8v4.5h11.9V8.1zM43.7 3.8l-1.2 1.1 7.3 7.1 1.2-1.2zM26.1 21l-2.7 9.6 9.9-2.6zm15-14.7L27.5 19.6l7.3 7.1 13.6-13.3z"/><path d="M46.2 50.7H7V9.3h27.8v2H9v37.4h35.2V20.2h2z"/></symbol><symbol viewBox="0 0 54.5 54.6" id="blog-news"><path d="M47.6 18.6h-12V6.1h2v10.5h10zM16.2 17h14.2v2H16.2zm0 6.3h23.7v2H16.2zm0 6h23.7v2H16.2z"/><path d="M40.5 52.5L27.8 44H6.3V5.6h31.2l11.8 10.3V44h-8.9v8.5zM8.3 42h20.1l10.1 6.8V42h8.9V16.7L36.8 7.6H8.3V42z"/></symbol><symbol viewBox="-270 393.3 54.5 54.6" id="blog-spec"><path d="M-243.3 429.7l-.9-29h4.9l-.9 29z"/><path d="M-240.3 401.7l-.9 27h-1.1l-.9-27h2.9m2-2h-7l1 31h5l1-31z"/><circle cx="-241.8" cy="439.2" r="2.5"/><path d="M-241.8 437.7c.8 0 1.5.7 1.5 1.5s-.7 1.5-1.5 1.5-1.5-.7-1.5-1.5.7-1.5 1.5-1.5m0-2c-1.9 0-3.5 1.6-3.5 3.5s1.6 3.5 3.5 3.5 3.5-1.6 3.5-3.5-1.5-3.5-3.5-3.5zM-249.1 440.5h-13.3v-36.8h13.3v2h-11.3v32.8h11.3zM-221.4 440.5h-13.3v-2h11.3v-32.8h-11.3v-2h13.3z"/></symbol><symbol viewBox="0 0 59.998 59.998" id="blog-tag"><path d="M59.206.293a.999.999 0 0 0-1.414 0L54.085 4H30.802L1.532 33.511c-.666.666-1.033 1.553-1.033 2.495s.367 1.829 1.033 2.495l20.466 20.466a3.51 3.51 0 0 0 2.491 1.031 3.54 3.54 0 0 0 2.509-1.041l28.501-29.271V5.414l3.707-3.707a.999.999 0 0 0 0-1.414zm-5.707 28.581L25.574 57.553a1.53 1.53 0 0 1-2.162 0L2.946 37.087a1.532 1.532 0 0 1 .003-2.165L31.636 6h20.449l-4.833 4.833A4.969 4.969 0 0 0 44.499 10c-2.757 0-5 2.243-5 5s2.243 5 5 5 5-2.243 5-5a4.969 4.969 0 0 0-.833-2.753l4.833-4.833v21.46zm-6-13.874c0 1.654-1.346 3-3 3s-3-1.346-3-3 1.346-3 3-3c.462 0 .894.114 1.285.301l-1.992 1.992a.999.999 0 1 0 1.414 1.414l1.992-1.992c.188.391.301.823.301 1.285z"/><path d="M34.049 39.479L23.441 50.085a.999.999 0 1 0 1.414 1.414l10.607-10.606a.999.999 0 1 0-1.413-1.414zm3.53-3.54c-.181.19-.29.45-.29.71 0 .261.109.521.29.71a1.012 1.012 0 0 0 1.42 0 1.016 1.016 0 0 0 0-1.42c-.36-.37-1.05-.37-1.42 0zm-8.48-8.482a.999.999 0 1 0-1.414-1.414L17.078 36.65a.999.999 0 1 0 1.414 1.414l10.607-10.607zm-3.536 12.022a.997.997 0 0 0 1.414 0l7.071-7.071a.999.999 0 1 0-1.414-1.414l-7.071 7.071a1 1 0 0 0 0 1.414zm-5.657 4.242l-1.414 1.415a.999.999 0 1 0 1.414 1.414l1.414-1.415a.999.999 0 1 0-1.414-1.414zm.707-19.092a.999.999 0 0 0-1.414 0L8.593 35.235a.999.999 0 1 0 1.414 1.414l10.606-10.606a.999.999 0 0 0 0-1.414zm2.825-1.829c.271 0 .521-.11.71-.29a1.01 1.01 0 0 0 0-1.42c-.369-.37-1.05-.37-1.409 0a1 1 0 0 0-.301.71c0 .26.11.52.29.71.191.179.451.29.71.29zm-9.189 16.679a.975.975 0 0 0-.29.71c0 .261.1.521.29.7.189.19.439.3.71.3.26 0 .52-.109.71-.3.18-.189.29-.439.29-.7a1 1 0 0 0-.3-.71c-.37-.37-1.04-.37-1.41 0zm9.899 2.831c.19-.189.29-.45.29-.71s-.1-.52-.29-.71c-.369-.37-1.05-.37-1.42 0-.18.19-.29.45-.29.71s.11.521.29.71c.19.181.45.29.71.29.271 0 .521-.11.71-.29z"/></symbol><symbol viewBox="0 0 46.8 46.7" id="callback"><style>.st0{fill:#010202}</style><path d="M23.4 46.8C10.5 46.8 0 36.3 0 23.4S10.5 0 23.4 0s23.4 10.5 23.4 23.4-10.5 23.4-23.4 23.4zm0-44.8C11.6 2 2 11.6 2 23.4s9.6 21.4 21.4 21.4 21.4-9.6 21.4-21.4S35.2 2 23.4 2z"/><path d="M16.3 27.4c2.5 3 5.6 5.4 9.1 7.1 1.3.6 3.1 1.4 5.1 1.5h.4c1.3 0 2.4-.5 3.3-1.4.3-.4.7-.7 1-1.1.3-.2.5-.5.8-.7 1.1-1.2 1.1-2.7 0-3.8l-3.2-3.2c-.5-.6-1.2-.9-1.9-.9s-1.3.3-1.9.9l-2 1.9c-.2-.1-.4-.2-.5-.3l-.6-.3c-1.7-1.1-3.3-2.5-4.8-4.4-.8-1-1.3-1.8-1.6-2.6.5-.5 1-.9 1.4-1.4l.5-.5c.6-.6.9-1.2.9-1.9s-.3-1.3-.9-1.9l-1.6-1.6c-.2-.2-.4-.4-.5-.6l-1.1-1.1c-.6-.5-1.2-.8-1.9-.8s-1.3.3-1.9.8l-2 2c-.7.7-1.1 1.6-1.2 2.6-.2 1.3.1 2.6.7 4.3.9 2.5 2.3 4.9 4.4 7.4zm-3.9-11.6c.1-.7.3-1.3.8-1.8l2-2c.3-.3.7-.5 1-.5.3 0 .7.2 1 .5.4.3.7.7 1.1 1l.6.6 1.6 1.6c.3.3.5.7.5 1 0 .3-.2.7-.5 1l-.5.5c-.5.5-1 1-1.5 1.4-.4.4-.4.9-.3 1.2.4 1 1 1.9 1.9 3.1 1.6 2 3.3 3.5 5.2 4.7.2.1.5.3.7.4l.6.3h.1c.2.1.3.1.5.1.4 0 .7-.3.8-.4l2-2c.3-.3.6-.5 1-.5s.7.3.9.5l3.2 3.2c.6.6.6 1.3 0 2l-.7.7c-.4.4-.8.7-1.1 1.2-.6.7-1.3 1-2.3 1h-.3c-1.8-.1-3.4-.8-4.6-1.4-3.3-1.6-6.2-3.9-8.7-6.8-2-2.4-3.3-4.6-4.2-7-.6-1.3-.8-2.5-.8-3.6z"/></symbol><symbol viewBox="0 0 511.949 511.949" id="cancel"><path d="M271.215 255.894l237.76-237.867c4.053-4.267 3.947-10.987-.213-15.04a10.763 10.763 0 0 0-14.827 0l-237.867 237.76L18.308 2.988c-4.267-4.053-10.987-3.947-15.04.32a10.763 10.763 0 0 0 0 14.827l237.76 237.76-237.76 237.76c-4.267 4.053-4.373 10.88-.213 15.04 4.16 4.16 10.88 4.373 15.04.213l.213-.213 237.76-237.76 237.76 237.76c4.267 4.053 10.987 3.947 15.04-.213a10.763 10.763 0 0 0 0-14.827L271.215 255.894z"/></symbol><symbol viewBox="0 0 60 60" id="clock"><path d="M30 0C13.458 0 0 13.458 0 30s13.458 30 30 30 30-13.458 30-30S46.542 0 30 0zm0 58C14.561 58 2 45.439 2 30S14.561 2 30 2s28 12.561 28 28-12.561 28-28 28z"/><path d="M31 26.021V15.879a1 1 0 1 0-2 0v10.142a3.995 3.995 0 0 0-2.858 2.858H19a1 1 0 1 0 0 2h7.142c.447 1.72 2 3 3.858 3 2.206 0 4-1.794 4-4 0-1.859-1.28-3.411-3-3.858zm-1 5.858c-1.103 0-2-.897-2-2s.897-2 2-2 2 .897 2 2-.897 2-2 2zm0-22a1 1 0 0 0 1-1v-1a1 1 0 1 0-2 0v1a1 1 0 0 0 1 1zm0 40a1 1 0 0 0-1 1v1a1 1 0 1 0 2 0v-1a1 1 0 0 0-1-1zm22-21h-1a1 1 0 1 0 0 2h1a1 1 0 1 0 0-2zm-43 0H8a1 1 0 1 0 0 2h1a1 1 0 1 0 0-2zm35.849-15.264l-.707.707a.999.999 0 1 0 1.414 1.414l.707-.707a.999.999 0 1 0-1.414-1.414zM14.444 44.021l-.707.707a.999.999 0 1 0 1.414 1.414l.707-.707a.999.999 0 1 0-1.414-1.414zm31.112 0a.999.999 0 1 0-1.414 1.414l.707.707a.997.997 0 0 0 1.414 0 .999.999 0 0 0 0-1.414l-.707-.707zM15.151 13.615a.999.999 0 1 0-1.414 1.414l.707.707a.997.997 0 0 0 1.414 0 .999.999 0 0 0 0-1.414l-.707-.707z"/></symbol><symbol viewBox="0 0 139.4 44.7" id="dorohovdesign"><path d="M52.2 19.5V8.1H57c3.6 0 6.1 2.1 6.1 5.7 0 3.5-2.6 5.7-6.1 5.7h-4.8zm7.9-5.7c0-1.8-1.1-3.1-3.1-3.1h-1.9v6.2H57c2 0 3.1-1.4 3.1-3.1m4.1 0c0-3.4 2.6-5.9 6.1-5.9 3.5 0 6.1 2.4 6.1 5.9 0 3.5-2.6 5.9-6.1 5.9-3.5 0-6.1-2.4-6.1-5.9m9.2 0c0-1.9-1.2-3.3-3.1-3.3-1.9 0-3.1 1.4-3.1 3.3 0 1.8 1.2 3.3 3.1 3.3 1.9 0 3.1-1.4 3.1-3.3m11 5.7l-1.9-3.8H81v3.8h-2.9V8.1h5.7c2.5 0 3.9 1.7 3.9 3.8 0 2-1.2 3-2.3 3.4l2.3 4.2h-3.3zm.3-7.6c0-.8-.6-1.2-1.4-1.2H81v2.4h2.3c.8 0 1.4-.4 1.4-1.2m4.2 1.9c0-3.4 2.6-5.9 6.1-5.9 3.5 0 6.1 2.4 6.1 5.9 0 3.5-2.6 5.9-6.1 5.9-3.5 0-6.1-2.4-6.1-5.9m9.1 0c0-1.9-1.2-3.3-3.1-3.3-1.9 0-3.1 1.4-3.1 3.3 0 1.8 1.2 3.3 3.1 3.3 1.9 0 3.1-1.4 3.1-3.3m12.4 5.7v-4.6h-4.7v4.6h-3V8.1h3v4.3h4.7V8.1h2.9v11.4zm4.6-5.7c0-3.4 2.6-5.9 6.1-5.9 3.5 0 6.1 2.4 6.1 5.9 0 3.5-2.6 5.9-6.1 5.9-3.5 0-6.1-2.4-6.1-5.9m9.2 0c0-1.9-1.2-3.3-3.1-3.3-1.9 0-3.1 1.4-3.1 3.3 0 1.8 1.2 3.3 3.1 3.3 1.9 0 3.1-1.4 3.1-3.3m7.3 5.7l-4.3-11.4h3.3l2.8 8.2 2.8-8.2h3.3l-4.2 11.4zm-79.3 17V25.1H57c3.6 0 6.1 2.1 6.1 5.7 0 3.5-2.6 5.7-6.1 5.7h-4.8zm7.9-5.7c0-1.8-1.1-3.1-3.1-3.1h-1.9v6.2H57c2 0 3.1-1.4 3.1-3.1m4.7 5.7V25.1h8.3v2.6h-5.3v1.8H73V32h-5.2v1.9h5.3v2.6zm9.6-1.6l1.5-2.2c.8.8 2.1 1.5 3.6 1.5 1 0 1.6-.4 1.6-.9 0-1.5-6.4-.3-6.4-4.7 0-1.9 1.6-3.6 4.5-3.6 1.8 0 3.4.5 4.6 1.6l-1.6 2.1c-1-.8-2.2-1.2-3.3-1.2-.8 0-1.2.3-1.2.8 0 1.4 6.4.4 6.4 4.6 0 2.3-1.7 3.8-4.7 3.8-2.2 0-3.8-.7-5-1.8m11.5-9.8h2.9v11.3h-2.9zm4.7 5.7c0-3.6 2.8-5.9 6.1-5.9 2.5 0 4.1 1.3 4.8 2.8L99.1 29c-.4-.7-1.3-1.4-2.4-1.4-1.9 0-3.2 1.4-3.2 3.3s1.3 3.3 3.2 3.3c.8 0 1.7-.3 2.1-.7v-.9h-2.6V30h5.5v4.5c-1.2 1.3-2.9 2.2-5 2.2-3.4 0-6.1-2.3-6.1-5.9m20.9 5.7l-4.8-6.6v6.6h-2.9V25.1h3l4.6 6.3v-6.3h2.9v11.4zM17.7 0H0v44.7h17.8c15 0 24.6-8.8 24.6-22.4C42.4 8.7 32.7 0 17.7 0m-.4 35.7h-8V9.5h8c9.3 0 15.7 3.7 15.7 12.7.1 7.5-5.8 13.5-15.7 13.5"/><path d="M19.1 17H17v10.6h2c4 0 6.4-2.4 6.4-5.4 0-3.7-2.6-5.2-6.3-5.2"/></symbol><symbol viewBox="0 0 96.124 96.123" id="fb"><path d="M72.089.02L59.624 0C45.62 0 36.57 9.285 36.57 23.656v10.907H24.037a1.96 1.96 0 0 0-1.96 1.961v15.803a1.96 1.96 0 0 0 1.96 1.96H36.57v39.876a1.96 1.96 0 0 0 1.96 1.96h16.352a1.96 1.96 0 0 0 1.96-1.96V54.287h14.654a1.96 1.96 0 0 0 1.96-1.96l.006-15.803a1.963 1.963 0 0 0-1.961-1.961H56.842v-9.246c0-4.444 1.059-6.7 6.848-6.7l8.397-.003a1.96 1.96 0 0 0 1.959-1.96V1.98A1.96 1.96 0 0 0 72.089.02z"/></symbol><symbol viewBox="0 0 375.795 375.795" id="filter-all"><path d="M364.053 324.635V61.498H257.919V35.136H117.877v26.361H11.743v263.138H0v16.023h375.795v-16.023h-11.742zm-218.954 0H27.767V77.521h117.332v247.114zm69.575 0h-53.552v-27.787h53.552v27.787zm0-258.141h-18.415v25.492h18.415v15.622h-18.415V133.1h18.415v15.625h-18.415v25.491h18.415v15.623h-18.415v25.492h18.415v15.624h-18.415v25.489h18.415v25.382h-53.552v-25.382h18.414v-25.489h-18.414v-15.624h18.414v-25.492h-18.414v-15.623h18.414v-25.491h-18.414V133.1h18.414v-25.492h-18.414V91.986h18.414V66.494h-18.414v-4.996h-28.224v-11.34h109.999v11.34h-28.224v4.996zm133.355 258.141H230.697V77.521h117.332v247.114z"/><path d="M246.238 94.947h34.207v27.19h-34.207zm52.044 0h34.207v27.19h-34.207zm-52.044 43.855h34.207v27.189h-34.207zm52.044 0h34.207v27.189h-34.207zm-52.044 43.856h34.207v27.191h-34.207zm52.044 0h34.207v27.191h-34.207zm-52.044 43.857h34.207v27.191h-34.207zm52.044 0h34.207v27.191h-34.207zm-52.044 43.856h34.207v27.191h-34.207zm52.044 0h34.207v27.191h-34.207zM43.308 94.947h34.207v27.19H43.308zm52.043 0h34.207v27.19H95.351zm-52.043 43.855h34.207v27.189H43.308zm52.043 0h34.207v27.189H95.351zm-52.043 43.856h34.207v27.191H43.308zm52.043 0h34.207v27.191H95.351zm-52.043 43.857h34.207v27.191H43.308zm52.043 0h34.207v27.191H95.351zm-52.043 43.856h34.207v27.191H43.308zm52.043 0h34.207v27.191H95.351z"/></symbol><symbol viewBox="0 0 40 40" id="filter-build"><path d="M13.4 4.1l5 5.1v24.6h-5V4.1M13 2.3l-.7.4v32h7v-26L13 2.3zm18.4 7.5v7h-2v-7h2m1-1h-4v9h4v-9z"/><path d="M30.605 16.635l.707.707-3.819 3.818-.707-.707zm1.45.703l.707.707-4.596 4.596-.707-.707zm1 1l.707.707-4.596 4.596-.707-.707zm.495 1.469l.707.708-3.606 3.606-.707-.707z"/><path d="M30.6 24.4c-2.2 0-3.9-1.8-3.9-3.9 0-2.2 1.8-3.9 3.9-3.9 2.2 0 3.9 1.8 3.9 3.9 0 2.2-1.8 3.9-3.9 3.9zm0-6.8c-1.6 0-2.9 1.3-2.9 2.9 0 1.6 1.3 2.9 2.9 2.9s2.9-1.3 2.9-2.9c-.1-1.6-1.4-2.9-2.9-2.9z"/><path d="M4.4 8.6h31v2.3h-31zm20 22.2h11.9v4H24.4zm4.5-6.9h3v2.9h-3zm-19 10.4h12v1.5h-12z"/><path d="M7.9 35.3h16v3h-16zM30.4 26.2l3.5 3.5h-7.1l3.6-3.5m0-1.4l-6 6h11.9l-5.9-6zM12.6 2.9l15.9 4.7H7.1l5.5-4.7m-.2-1.1l-8 6.8h31l-23-6.8z"/><path d="M13.4 4.1l5 5.1v26h-5V4.1m-1-1.8v33.9h7V8.7l-5.8-5.9-1.2-.5z"/><path d="M15.8 36.6l-.7-.7 2.5-2.6H13l-.4-.9 5-5h-4.7l-.4-.8 5.1-5.1h-4.8l-.4-.9 5.2-5.2h-4.8l-.4-.9 4.7-4.6h-4.2v-1h5.4l.3.9-4.6 4.6h4.8l.4.8-5.2 5.3h4.8l.4.8-5.1 5.1h4.7l.4.9-5 5h4.6l.4.8z"/></symbol><symbol viewBox="0 0 106.9 105.6" id="filter-buy"><path d="M68.7 61h-31V0h31v61zm-29-2h27V2h-27v57z"/><path d="M61 98.1H44.8V59H61v39.1zm-14.2-2H59V61H46.8v35.1z"/><path d="M70.6 105.3H35.7v-9.2h34.9v9.2zm-32.9-2h30.9v-5.1H37.7v5.1zM76 18.7h-9.3v-6.1h2v4.1H76z"/><path d="M90.9 105.3H66.8V11.7h25.1v47.7h-2V13.7H68.8v89.6h22.1zM45.6 11.1h4.3V15h-4.3z"/><path d="M50.9 16h-6.3v-5.9h6.3V16zm-4.3-2h2.3v-1.9h-2.3V14zm9.8-2.9h4.3V15h-4.3z"/><path d="M61.7 16h-6.3v-5.9h6.3V16zm-4.3-2h2.3v-1.9h-2.3V14zm-11.8 5.9h4.3v3.9h-4.3z"/><path d="M50.9 24.8h-6.3v-5.9h6.3v5.9zm-4.3-2h2.3v-1.9h-2.3v1.9zm9.8-2.9h4.3v3.9h-4.3z"/><path d="M61.7 24.8h-6.3v-5.9h6.3v5.9zm-4.3-2h2.3v-1.9h-2.3v1.9zm-11.8 6.1h4.3v3.9h-4.3z"/><path d="M50.9 33.8h-6.3v-5.9h6.3v5.9zm-4.3-2h2.3v-1.9h-2.3v1.9zm9.8-2.9h4.3v3.9h-4.3z"/><path d="M61.7 33.8h-6.3v-5.9h6.3v5.9zm-4.3-2h2.3v-1.9h-2.3v1.9zm-11.8 6h4.3v3.9h-4.3z"/><path d="M50.9 42.7h-6.3v-5.9h6.3v5.9zm-4.3-2h2.3v-1.9h-2.3v1.9zm9.8-2.9h4.3v3.9h-4.3z"/><path d="M61.7 42.7h-6.3v-5.9h6.3v5.9zm-4.3-2h2.3v-1.9h-2.3v1.9zm-11.8 6.1h4.3v3.9h-4.3z"/><path d="M50.9 51.7h-6.3v-5.9h6.3v5.9zm-4.3-2h2.3v-1.9h-2.3v1.9zm9.8-2.9h4.3v3.9h-4.3z"/><path d="M61.7 51.7h-6.3v-5.9h6.3v5.9zm-4.3-2h2.3v-1.9h-2.3v1.9zm20.2-27.9h4.3v3.9h-4.3z"/><path d="M82.9 26.6h-6.3v-5.9h6.3v5.9zm-4.3-2h2.3v-1.9h-2.3v1.9zm-1 6h4.3v3.9h-4.3z"/><path d="M82.9 35.4h-6.3v-5.9h6.3v5.9zm-4.3-2h2.3v-1.9h-2.3v1.9zm-1 6.2h4.3v3.9h-4.3z"/><path d="M82.9 44.4h-6.3v-5.9h6.3v5.9zm-4.3-2h2.3v-1.9h-2.3v1.9zm-1 6h4.3v3.9h-4.3z"/><path d="M82.9 53.3h-6.3v-5.9h6.3v5.9zm-4.3-2h2.3v-1.9h-2.3v1.9zm-39-32.6h-9.3v-2h7.3v-4.1h2z"/><path d="M39.6 105.3H14.4V11.7h25.1v93.6zm-23.2-2h21.1V13.7H16.4v89.6z"/><path d="M24.4 21.8h4.3v3.9h-4.3z"/><path d="M29.8 26.7h-6.3v-5.9h6.3v5.9zm-4.4-2h2.3v-1.9h-2.3v1.9zM24.4 30.6h4.3v3.9h-4.3z"/><path d="M29.8 35.5h-6.3v-5.9h6.3v5.9zm-4.4-2h2.3v-1.9h-2.3v1.9zM24.4 39.6h4.3v3.9h-4.3z"/><path d="M29.8 44.5h-6.3v-5.9h6.3v5.9zm-4.4-2h2.3v-1.9h-2.3v1.9zM24.4 48.5h4.3v3.9h-4.3z"/><path d="M29.8 53.3h-6.3v-5.9h6.3v5.9zm-4.4-2h2.3v-1.9h-2.3v1.9zM24.4 57.5h4.3v3.9h-4.3z"/><path d="M29.8 62.3h-6.3v-5.9h6.3v5.9zm-4.4-2h2.3v-1.9h-2.3v1.9zM24.4 66.2h4.3v3.9h-4.3z"/><path d="M29.8 71.1h-6.3v-5.9h6.3v5.9zm-4.4-2h2.3v-1.9h-2.3v1.9z"/><g><path d="M24.4 75.2h4.3v3.9h-4.3z"/><path d="M29.8 80.1h-6.3v-5.9h6.3v5.9zm-4.4-2h2.3v-1.9h-2.3v1.9z"/></g><g><path d="M24.4 84.1h4.3V88h-4.3z"/><path d="M29.8 88.9h-6.3V83h6.3v5.9zm-4.4-2h2.3V85h-2.3v1.9z"/></g><g><path d="M24.4 93.1h4.3V97h-4.3z"/><path d="M29.8 97.9h-6.3V92h6.3v5.9zm-4.4-2h2.3V94h-2.3v1.9z"/></g><g><path d="M-1.8 104.6h108.7m-108.7-1H107v2H-1.8z"/></g><path d="M92.6 82.3c5.4 0 9.8-4.4 9.8-9.8s-4.4-9.8-9.8-9.8h-8.1c-1 0-1.7.8-1.7 1.7v21.3h-1.7c-1 0-1.7.8-1.7 1.7s.8 1.7 1.7 1.7h1.7V99c0 1 .8 1.7 1.7 1.7 1 0 1.7-.8 1.7-1.7v-9.8h6.3c1 0 1.7-.8 1.7-1.7s-.8-1.7-1.7-1.7h-6.3v-3.5h6.4zm0-16.2c3.5 0 6.3 2.9 6.3 6.3 0 3.5-2.8 6.3-6.3 6.3h-6.3V66.1h6.3z"/></symbol><symbol viewBox="0 0 41.3 41.4" id="filter-ready"><path d="M26.1 9.8V41h4.3V7.7zM6.2 9.4v-3l10-5.8V4zm0 2.6l10-4.9v3.4l-10 4.4zm0 8.8v-3.3l10-4v3.9zm0 5.9v-3.3l10-2.9v3.9zm0 5.9v-3.3l10-1.9v3.9zm0 8.1v-5.5l10-.9v6.5zm11.3.3v-6.5l7.3.7v5.6zm0-9.6v-3.9l7.3 1.6v3.4zm0-6.9v-3.9l7.3 2.5v3.4zm0-7v-3.9l7.3 3.5v3.4zm0-6.9V7.1l7.3 4.4v3zm0-6.5V.6l7.3 5.2v3zm13.8 6.4V7.7l6.1 4.3v2.5zm0 5.4V13l6.1 3.6v2.5zm0 5.7v-3.2l6.1 2.9v2.8l-6-2.4zm0 5.8v-3.3l6.1 2.1V29zm0 5.7v-3.2l6.1 1.3V34zm0 7.9v-5.4l6.1.6v4.6z"/></symbol><symbol viewBox="0 0 97.395 97.395" id="inst"><path d="M12.501 0h72.393c6.875 0 12.5 5.09 12.5 12.5v72.395c0 7.41-5.625 12.5-12.5 12.5H12.501C5.624 97.395 0 92.305 0 84.895V12.5C0 5.09 5.624 0 12.501 0zm58.447 10.821a4.395 4.395 0 0 0-4.383 4.385v10.495a4.396 4.396 0 0 0 4.383 4.385h11.008a4.398 4.398 0 0 0 4.385-4.385V15.206a4.397 4.397 0 0 0-4.385-4.385H70.948zm15.439 30.367h-8.572a28.486 28.486 0 0 1 1.25 8.355c0 16.2-13.556 29.332-30.275 29.332-16.718 0-30.272-13.132-30.272-29.332 0-2.904.438-5.708 1.25-8.355h-8.945v41.141a3.884 3.884 0 0 0 3.872 3.872h67.822a3.883 3.883 0 0 0 3.872-3.872V41.188h-.002zM48.789 29.533c-10.802 0-19.56 8.485-19.56 18.953s8.758 18.953 19.56 18.953c10.803 0 19.562-8.485 19.562-18.953s-8.758-18.953-19.562-18.953z"/></symbol><symbol viewBox="0 0 485.411 485.411" id="mailto"><path d="M0 81.824v321.763h485.411V81.824H0zm242.708 198.702L43.612 105.691h398.187L242.708 280.526zm-79.311-37.877L23.867 365.178V120.119l139.53 122.53zm18.085 15.884l61.22 53.762 61.22-53.762L441.924 379.72H43.487l137.995-121.187zm140.526-15.878l139.535-122.536v245.059L322.008 242.655z"/></symbol><symbol viewBox="0 0 578.106 578.106" id="navbar-tel"><path fill="#235aa3" d="M577.83 456.128c1.225 9.385-1.635 17.545-8.568 24.48l-81.396 80.781c-3.672 4.08-8.465 7.551-14.381 10.404-5.916 2.857-11.729 4.693-17.439 5.508-.408 0-1.635.105-3.676.309-2.037.203-4.689.307-7.953.307-7.754 0-20.301-1.326-37.641-3.979s-38.555-9.182-63.645-19.584c-25.096-10.404-53.553-26.012-85.376-46.818-31.823-20.805-65.688-49.367-101.592-85.68-28.56-28.152-52.224-55.08-70.992-80.783-18.768-25.705-33.864-49.471-45.288-71.299-11.425-21.828-19.993-41.616-25.705-59.364S4.59 177.362 2.55 164.51-.306 141.56.102 134.216c.408-7.344.612-11.424.612-12.24.816-5.712 2.652-11.526 5.508-17.442s6.324-10.71 10.404-14.382L98.022 8.756c5.712-5.712 12.24-8.568 19.584-8.568 5.304 0 9.996 1.53 14.076 4.59s7.548 6.834 10.404 11.322l65.484 124.236c3.672 6.528 4.692 13.668 3.06 21.42-1.632 7.752-5.1 14.28-10.404 19.584l-29.988 29.988c-.816.816-1.53 2.142-2.142 3.978s-.918 3.366-.918 4.59c1.632 8.568 5.304 18.36 11.016 29.376 4.896 9.792 12.444 21.726 22.644 35.802s24.684 30.293 43.452 48.653c18.36 18.77 34.68 33.354 48.96 43.76 14.277 10.4 26.215 18.053 35.803 22.949 9.588 4.896 16.932 7.854 22.031 8.871l7.648 1.531c.816 0 2.145-.307 3.979-.918 1.836-.613 3.162-1.326 3.979-2.143l34.883-35.496c7.348-6.527 15.912-9.791 25.705-9.791 6.938 0 12.443 1.223 16.523 3.672h.611l118.115 69.768c8.571 5.308 13.67 12.038 15.303 20.198z"/></symbol><symbol viewBox="-113 114.2 32.8 32.8" id="news-date"><path opacity=".7" fill="#fff" d="M-109.9 146.3l-1.8-2v-25.9h30v22.7l-5.2 5.2z"/><path d="M-83.6 115.4h-1.1c0-.1.1-.2.1-.3 0-.5-.4-1-1-1s-1 .4-1 1c0 .1 0 .2.1.3h-3.7c0-.1.1-.2.1-.3 0-.5-.4-1-1-1-.5 0-1 .4-1 1 0 .1 0 .2.1.3h-3.7c0-.1.1-.2.1-.3 0-.5-.4-1-1-1s-1 .4-1 1c0 .1 0 .2.1.3h-3.7c0-.1.1-.2.1-.3 0-.5-.4-1-1-1-.5 0-1 .4-1 1 0 .1 0 .2.1.3h-3.7c0-.1.1-.2.1-.3 0-.5-.4-1-1-1s-1 .4-1 1c0 .1 0 .2.1.3h-1.1c-1.5 0-2.8 1.2-2.8 2.8v26c0 1.5 1.2 2.8 2.8 2.8h22.9l5.9-5.9v-22.9c-.1-1.6-1.3-2.8-2.8-2.8zm1.2 25l-.3.3H-85c-1.1 0-2 .9-2 2v2.4l-.3.3h-22.3c-.7 0-1.3-.6-1.3-1.3v-25h28.5v21.3z" fill="#235aa3"/></symbol><symbol viewBox="0 0 95.481 95.481" id="ok"><path d="M43.041 67.254c-7.402-.772-14.076-2.595-19.79-7.064-.709-.556-1.441-1.092-2.088-1.713-2.501-2.402-2.753-5.153-.774-7.988 1.693-2.426 4.535-3.075 7.489-1.682.572.27 1.117.607 1.639.969 10.649 7.317 25.278 7.519 35.967.329 1.059-.812 2.191-1.474 3.503-1.812 2.551-.655 4.93.282 6.299 2.514 1.564 2.549 1.544 5.037-.383 7.016-2.956 3.034-6.511 5.229-10.461 6.761-3.735 1.448-7.826 2.177-11.875 2.661.611.665.899.992 1.281 1.376 5.498 5.524 11.02 11.025 16.5 16.566 1.867 1.888 2.257 4.229 1.229 6.425-1.124 2.4-3.64 3.979-6.107 3.81-1.563-.108-2.782-.886-3.865-1.977-4.149-4.175-8.376-8.273-12.441-12.527-1.183-1.237-1.752-1.003-2.796.071-4.174 4.297-8.416 8.528-12.683 12.735-1.916 1.889-4.196 2.229-6.418 1.15-2.362-1.145-3.865-3.556-3.749-5.979.08-1.639.886-2.891 2.011-4.014 5.441-5.433 10.867-10.88 16.295-16.322.359-.362.694-.746 1.217-1.305z"/><path d="M47.55 48.329c-13.205-.045-24.033-10.992-23.956-24.218C23.67 10.739 34.505-.037 47.84 0c13.362.036 24.087 10.967 24.02 24.478-.068 13.199-10.971 23.897-24.31 23.851zm12.001-24.186c-.023-6.567-5.253-11.795-11.807-11.801-6.609-.007-11.886 5.316-11.835 11.943.049 6.542 5.324 11.733 11.896 11.709 6.552-.023 11.768-5.285 11.746-11.851z"/></symbol><symbol viewBox="0 0 451 451" id="search"><path d="M447.05 428l-109.6-109.6c29.4-33.8 47.2-77.9 47.2-126.1C384.65 86.2 298.35 0 192.35 0 86.25 0 .05 86.3.05 192.3s86.3 192.3 192.3 192.3c48.2 0 92.3-17.8 126.1-47.2L428.05 447c2.6 2.6 6.1 4 9.5 4s6.9-1.3 9.5-4c5.2-5.2 5.2-13.8 0-19zM26.95 192.3c0-91.2 74.2-165.3 165.3-165.3 91.2 0 165.3 74.2 165.3 165.3s-74.1 165.4-165.3 165.4c-91.1 0-165.3-74.2-165.3-165.4z"/></symbol><symbol viewBox="0 0 473.806 473.806" id="tel"><path d="M374.456 293.506c-9.7-10.1-21.4-15.5-33.8-15.5-12.3 0-24.1 5.3-34.2 15.4l-31.6 31.5c-2.6-1.4-5.2-2.7-7.7-4-3.6-1.8-7-3.5-9.9-5.3-29.6-18.8-56.5-43.3-82.3-75-12.5-15.8-20.9-29.1-27-42.6 8.2-7.5 15.8-15.3 23.2-22.8 2.8-2.8 5.6-5.7 8.4-8.5 21-21 21-48.2 0-69.2l-27.3-27.3c-3.1-3.1-6.3-6.3-9.3-9.5-6-6.2-12.3-12.6-18.8-18.6-9.7-9.6-21.3-14.7-33.5-14.7s-24 5.1-34 14.7l-.2.2-34 34.3c-12.8 12.8-20.1 28.4-21.7 46.5-2.4 29.2 6.2 56.4 12.8 74.2 16.2 43.7 40.4 84.2 76.5 127.6 43.8 52.3 96.5 93.6 156.7 122.7 23 10.9 53.7 23.8 88 26 2.1.1 4.3.2 6.3.2 23.1 0 42.5-8.3 57.7-24.8.1-.2.3-.3.4-.5 5.2-6.3 11.2-12 17.5-18.1 4.3-4.1 8.7-8.4 13-12.9 9.9-10.3 15.1-22.3 15.1-34.6 0-12.4-5.3-24.3-15.4-34.3l-54.9-55.1zm35.8 105.3c-.1 0-.1.1 0 0-3.9 4.2-7.9 8-12.2 12.2-6.5 6.2-13.1 12.7-19.3 20-10.1 10.8-22 15.9-37.6 15.9-1.5 0-3.1 0-4.6-.1-29.7-1.9-57.3-13.5-78-23.4-56.6-27.4-106.3-66.3-147.6-115.6-34.1-41.1-56.9-79.1-72-119.9-9.3-24.9-12.7-44.3-11.2-62.6 1-11.7 5.5-21.4 13.8-29.7l34.1-34.1c4.9-4.6 10.1-7.1 15.2-7.1 6.3 0 11.4 3.8 14.6 7l.3.3c6.1 5.7 11.9 11.6 18 17.9 3.1 3.2 6.3 6.4 9.5 9.7l27.3 27.3c10.6 10.6 10.6 20.4 0 31-2.9 2.9-5.7 5.8-8.6 8.6-8.4 8.6-16.4 16.6-25.1 24.4-.2.2-.4.3-.5.5-8.6 8.6-7 17-5.2 22.7l.3.9c7.1 17.2 17.1 33.4 32.3 52.7l.1.1c27.6 34 56.7 60.5 88.8 80.8 4.1 2.6 8.3 4.7 12.3 6.7 3.6 1.8 7 3.5 9.9 5.3.4.2.8.5 1.2.7 3.4 1.7 6.6 2.5 9.9 2.5 8.3 0 13.5-5.2 15.2-6.9l34.2-34.2c3.4-3.4 8.8-7.5 15.1-7.5 6.2 0 11.3 3.9 14.4 7.3l.2.2 55.1 55.1c10.3 10.2 10.3 20.7.1 31.3zm-154.2-286.1c26.2 4.4 50 16.8 69 35.8s31.3 42.8 35.8 69c1.1 6.6 6.8 11.2 13.3 11.2.8 0 1.5-.1 2.3-.2 7.4-1.2 12.3-8.2 11.1-15.6-5.4-31.7-20.4-60.6-43.3-83.5s-51.8-37.9-83.5-43.3c-7.4-1.2-14.3 3.7-15.6 11s3.5 14.4 10.9 15.6zm217.2 96.3c-8.9-52.2-33.5-99.7-71.3-137.5s-85.3-62.4-137.5-71.3c-7.3-1.3-14.2 3.7-15.5 11-1.2 7.4 3.7 14.3 11.1 15.6 46.6 7.9 89.1 30 122.9 63.7 33.8 33.8 55.8 76.3 63.7 122.9 1.1 6.6 6.8 11.2 13.3 11.2.8 0 1.5-.1 2.3-.2 7.3-1.1 12.3-8.1 11-15.4z"/></symbol><symbol viewBox="0 0 189.473 189.473" id="telegram"><path d="M152.531 179.476c-1.48 0-2.95-.438-4.211-1.293l-47.641-32.316-25.552 18.386a7.502 7.502 0 0 1-11.633-4.174l-12.83-48.622L4.821 93.928a7.501 7.501 0 0 1-.094-13.975l174.312-69.36a7.503 7.503 0 0 1 10.282 8.408L159.898 173.38a7.499 7.499 0 0 1-7.367 6.096zm-47.669-48.897l42.437 28.785L170.193 39.24l-82.687 79.566 17.156 11.638c.069.043.135.089.2.135zm-35.327-6.401l5.682 21.53 12.242-8.809-16.03-10.874a7.478 7.478 0 0 1-1.894-1.847zM28.136 86.782l31.478 12.035a7.5 7.5 0 0 1 4.573 5.092l3.992 15.129a7.504 7.504 0 0 1 2.259-4.624L149.227 38.6 28.136 86.782z"/></symbol><symbol viewBox="0 0 612 612" id="twitter"><path d="M612 116.258a250.714 250.714 0 0 1-72.088 19.772c25.929-15.527 45.777-40.155 55.184-69.411-24.322 14.379-51.169 24.82-79.775 30.48-22.907-24.437-55.49-39.658-91.63-39.658-69.334 0-125.551 56.217-125.551 125.513 0 9.828 1.109 19.427 3.251 28.606-104.326-5.24-196.835-55.223-258.75-131.174-10.823 18.51-16.98 40.078-16.98 63.101 0 43.559 22.181 81.993 55.835 104.479a125.556 125.556 0 0 1-56.867-15.756v1.568c0 60.806 43.291 111.554 100.693 123.104-10.517 2.83-21.607 4.398-33.08 4.398-8.107 0-15.947-.803-23.634-2.333 15.985 49.907 62.336 86.199 117.253 87.194-42.947 33.654-97.099 53.655-155.916 53.655-10.134 0-20.116-.612-29.944-1.721 55.567 35.681 121.536 56.485 192.438 56.485 230.948 0 357.188-191.291 357.188-357.188l-.421-16.253c24.666-17.593 46.005-39.697 62.794-64.861z"/></symbol><symbol viewBox="0 0 512.002 512.002" id="viber"><path d="M437.976 214.854c.615-72.186-60.866-138.361-137.051-147.512-1.515-.18-3.166-.453-4.913-.743-3.772-.625-7.672-1.267-11.607-1.267-15.614 0-19.788 10.968-20.887 17.51-1.069 6.36-.049 11.701 3.024 15.882 5.171 7.031 14.269 8.279 21.577 9.28 2.142.296 4.163.571 5.855.951 68.449 15.295 91.497 39.341 102.761 107.208.275 1.658.399 3.702.531 5.869.491 8.113 1.515 24.991 19.661 24.991h.002c1.511 0 3.134-.13 4.824-.388 16.898-2.568 16.368-17.996 16.114-25.409-.072-2.088-.14-4.063.037-5.376a7.57 7.57 0 0 0 .072-.996z"/><path d="M279.974 40.846c2.027.146 3.947.286 5.545.531 112.4 17.286 164.091 70.54 178.416 183.819.243 1.926.281 4.274.321 6.761.143 8.85.437 27.262 20.21 27.643l.614.006c6.201 0 11.134-1.87 14.662-5.562 6.155-6.438 5.726-16.002 5.379-23.689-.084-1.886-.165-3.662-.145-5.217C506.405 109.283 406.12 4.226 290.369.32c-.48-.016-.938.01-1.401.075-.227.033-.649.075-1.371.075-1.154 0-2.574-.1-4.08-.202C281.696.143 279.632 0 277.54 0c-18.434 0-21.938 13.102-22.386 20.912-1.034 18.051 16.428 19.321 24.82 19.934zm178.537 330.756c-2.39-1.825-4.861-3.714-7.174-5.578-12.272-9.876-25.328-18.979-37.955-27.783a2807.15 2807.15 0 0 1-7.852-5.484c-16.174-11.361-30.715-16.882-44.453-16.882-18.504 0-34.636 10.224-47.951 30.384-5.899 8.938-13.056 13.283-21.876 13.283-5.215 0-11.142-1.488-17.612-4.425-52.207-23.674-89.486-59.972-110.803-107.886-10.305-23.158-6.964-38.295 11.172-50.615 10.299-6.99 29.469-20.003 28.111-44.922-1.538-28.298-63.976-113.445-90.284-123.115-11.138-4.096-22.841-4.134-34.846-.095-30.244 10.167-51.947 28.022-62.769 51.631-10.458 22.813-9.986 49.599 1.366 77.463C48.401 238.14 94.538 308.38 152.72 366.342c56.95 56.74 126.946 103.217 208.042 138.137 7.31 3.145 14.977 4.861 20.575 6.112 1.908.429 3.555.795 4.756 1.124.66.18 1.34.277 2.023.283l.641.003h.003c38.142 0 83.941-34.854 98.007-74.59 12.323-34.793-10.177-51.991-28.256-65.809zm-161.666-238.73c-6.53.165-20.121.502-24.889 14.344-2.231 6.468-1.964 12.084.795 16.692 4.048 6.761 11.805 8.833 18.86 9.97 25.586 4.106 38.726 18.254 41.354 44.522 1.221 12.248 9.469 20.801 20.059 20.801h.002c.782 0 1.582-.046 2.379-.143 12.736-1.515 18.911-10.873 18.353-27.81.204-17.677-9.047-37.745-24.781-53.73-15.79-16.034-34.821-25.064-52.132-24.646z"/></symbol><symbol viewBox="0 0 304.36 304.36" id="vk"><path d="M261.945 175.576c10.096 9.857 20.752 19.131 29.807 29.982 4 4.822 7.787 9.798 10.684 15.394 4.105 7.955.387 16.709-6.746 17.184l-44.34-.02c-11.436.949-20.559-3.655-28.23-11.474-6.139-6.253-11.824-12.908-17.727-19.372-2.42-2.642-4.953-5.128-7.979-7.093-6.053-3.929-11.307-2.726-14.766 3.587-3.523 6.421-4.322 13.531-4.668 20.687-.475 10.441-3.631 13.186-14.119 13.664-22.414 1.057-43.686-2.334-63.447-13.641-17.422-9.968-30.932-24.04-42.691-39.971-22.895-31.021-40.428-65.108-56.186-100.15C-2.01 76.458.584 72.22 9.295 72.07c14.465-.281 28.928-.261 43.41-.02 5.879.086 9.771 3.458 12.041 9.012 7.826 19.243 17.402 37.551 29.422 54.521 3.201 4.518 6.465 9.036 11.113 12.216 5.142 3.521 9.057 2.354 11.476-3.374 1.535-3.632 2.207-7.544 2.553-11.434 1.146-13.383 1.297-26.743-.713-40.079-1.234-8.323-5.922-13.711-14.227-15.286-4.238-.803-3.607-2.38-1.555-4.799 3.564-4.172 6.916-6.769 13.598-6.769h50.111c7.889 1.557 9.641 5.101 10.721 13.039l.043 55.663c-.086 3.073 1.535 12.192 7.07 14.226 4.43 1.448 7.35-2.096 10.008-4.905 11.998-12.734 20.561-27.783 28.211-43.366 3.395-6.852 6.314-13.968 9.143-21.078 2.096-5.276 5.385-7.872 11.328-7.757l48.229.043c1.43 0 2.877.021 4.262.258 8.127 1.385 10.354 4.881 7.844 12.817-3.955 12.451-11.65 22.827-19.174 33.251-8.043 11.129-16.645 21.877-24.621 33.072-7.328 10.223-6.746 15.376 2.357 24.255zm0 0" fill-rule="evenodd" clip-rule="evenodd"/></symbol><symbol viewBox="0 0 215.094 215.094" id="yb"><path d="M28.302 32.547C12.673 32.547 0 45.22 0 60.849v93.396c0 15.629 12.673 28.302 28.302 28.302h158.491c15.629 0 28.301-12.673 28.301-28.302V60.849c0-15.629-12.672-28.302-28.301-28.302H28.302zm62.245 113.036V69.511l50 38.036-50 38.036z"/></symbol></svg>