<?xml version="1.0" standalone="no"?>
<!DOCTYPE svg PUBLIC "-//W3C//DTD SVG 20010904//EN"
 "http://www.w3.org/TR/2001/REC-SVG-20010904/DTD/svg10.dtd">
<svg version="1.0" xmlns="http://www.w3.org/2000/svg"
 width="16.000000pt" height="16.000000pt" viewBox="0 0 16.000000 16.000000"
 preserveAspectRatio="xMidYMid meet">
<metadata>
Created by potrace 1.11, written by Peter Selinger 2001-2013
</metadata>
<g transform="translate(0.000000,16.000000) scale(0.006154,-0.006154)"
fill="#000000" stroke="none">
<path d="M2168 2124 c-156 -30 -336 -113 -513 -235 -167 -116 -306 -209 -310
-209 -2 0 -45 -24 -97 -54 -51 -30 -165 -89 -253 -132 -88 -43 -154 -79 -147
-82 6 -2 27 1 45 7 19 7 44 13 55 16 54 10 331 108 408 144 47 22 118 64 157
93 398 292 660 391 900 341 39 -8 93 -25 120 -39 28 -13 55 -24 59 -24 5 0 8
26 6 57 -3 57 -4 58 -43 77 -101 48 -263 65 -387 40z"/>
<path d="M2248 1975 c-2 -2 -25 -5 -53 -9 -58 -7 -156 -34 -233 -65 -55 -22
-223 -110 -232 -121 -3 -3 -23 -17 -45 -30 -35 -21 -108 -72 -140 -98 -15 -12
-194 -122 -199 -122 -2 0 -46 -20 -98 -44 -96 -45 -306 -122 -361 -132 -38 -6
-49 -13 -42 -24 3 -5 17 -5 33 1 15 6 28 10 30 10 1 -1 3 -1 5 0 1 0 12 3 25
5 12 2 32 6 45 8 12 2 22 5 22 6 0 1 8 3 18 5 46 9 193 60 199 69 4 6 8 8 8 4
0 -9 104 34 195 79 57 29 179 102 301 180 24 16 166 84 179 86 6 1 12 4 15 7
7 7 112 40 185 57 33 8 101 16 150 17 134 5 226 -15 338 -72 4 -2 7 21 7 52 0
54 -1 56 -38 75 -33 17 -83 33 -147 48 -22 5 -163 11 -167 8z"/>
<path d="M2197 1824 c-1 -1 -22 -5 -47 -9 -25 -4 -52 -8 -60 -9 -111 -18 -319
-118 -497 -239 -118 -80 -281 -174 -310 -178 -5 -1 -19 -6 -33 -11 -14 -6 -29
-11 -35 -12 -5 -1 -15 -5 -21 -8 -6 -4 -21 -9 -35 -12 -13 -3 -57 -14 -97 -25
-41 -11 -92 -23 -115 -26 -23 -3 -51 -7 -62 -9 -11 -3 -28 -5 -38 -5 -10 -1
-15 -6 -12 -11 4 -6 9 -9 13 -6 4 2 41 7 81 10 41 4 78 9 82 11 3 3 25 7 49
10 23 3 45 7 49 10 4 2 18 6 32 9 56 12 70 15 79 21 5 3 20 8 32 10 68 13 191
71 371 173 150 85 361 160 502 178 77 10 173 11 245 1 71 -9 198 -45 206 -58
3 -5 9 -9 15 -9 14 0 11 106 -3 118 -24 19 -137 60 -185 68 -45 6 -200 13
-206 8z"/>
<path d="M2109 1655 c-152 -30 -356 -116 -549 -231 -128 -76 -252 -138 -330
-164 -89 -30 -92 -31 -205 -36 -96 -5 -104 -4 -200 31 -55 20 -107 38 -115 40
-8 1 -35 8 -60 15 -25 7 -56 14 -70 16 -14 2 -34 6 -45 9 -70 15 -259 23 -315
12 -8 -1 -61 -20 -116 -42 l-101 -40 -1 -42 c-1 -24 0 -43 1 -43 1 0 18 4 37
10 42 12 164 24 245 24 232 -1 523 -71 820 -199 137 -59 234 -105 240 -115 3
-4 22 -4 42 0 47 11 82 16 268 40 151 20 240 25 430 25 222 0 304 -8 426 -39
l88 -23 -4 36 c-2 20 -4 39 -4 43 -2 18 -190 62 -316 74 -175 16 -484 -3 -685
-41 -22 -5 -23 -4 -7 6 39 23 209 64 357 85 52 7 330 7 375 0 17 -2 53 -7 80
-11 28 -4 81 -13 118 -21 89 -18 86 -19 85 15 -1 24 -9 34 -47 54 -130 70
-377 83 -613 33 -146 -31 -328 -89 -473 -151 -97 -42 -101 -43 -128 -27 l-27
16 26 14 c126 66 442 168 609 197 55 9 103 19 107 21 5 3 8 0 8 -7 0 -8 4 -8
13 -1 13 10 293 10 337 -1 14 -4 48 -12 75 -18 28 -7 65 -18 83 -26 l33 -13
-4 35 c-5 38 -26 60 -91 92 -51 26 -109 43 -161 48 -22 2 -42 4 -45 5 -3 1 -9
2 -13 1 -5 -1 -47 -3 -95 -5 -48 -3 -97 -7 -108 -9 -12 -3 -38 -8 -59 -11 -20
-4 -41 -8 -45 -11 -3 -2 -22 -7 -41 -10 -72 -13 -303 -89 -396 -131 -18 -8
-50 -21 -70 -28 -21 -8 -68 -28 -105 -44 -59 -27 -104 -36 -160 -33 -35 2 -17
17 35 29 48 11 182 60 289 106 21 9 39 16 40 15 2 0 30 13 63 29 97 47 316
116 405 127 14 2 50 7 80 11 167 21 343 -5 445 -65 l32 -18 1 54 1 55 -63 29
c-172 81 -453 69 -706 -28 -36 -14 -71 -25 -77 -26 -7 0 -13 -4 -13 -9 0 -4
-3 -7 -7 -6 -5 1 -25 -6 -47 -15 -21 -9 -42 -17 -46 -17 -4 0 -13 -7 -20 -15
-7 -9 -15 -14 -17 -11 -2 2 -36 -14 -75 -35 -39 -21 -73 -39 -75 -39 -3 0 -27
-11 -54 -24 -138 -70 -281 -101 -334 -74 -28 15 -27 15 49 27 119 17 225 57
435 164 182 93 371 166 461 180 19 3 46 8 60 12 14 3 79 8 145 10 129 5 237
-11 329 -46 28 -10 52 -19 54 -19 1 0 2 22 2 50 0 59 -8 66 -125 106 -95 31
-258 40 -366 19z"/>
<path d="M301 1126 c-88 -17 -155 -38 -238 -76 -61 -28 -62 -28 -61 -69 0 -23
1 -41 2 -41 1 0 17 5 36 10 85 25 352 34 503 17 79 -8 305 -53 343 -67 14 -6
38 -12 54 -15 44 -8 296 -94 366 -125 34 -16 65 -26 68 -22 4 3 26 7 49 8 23
1 67 5 97 8 75 8 181 16 266 20 40 2 76 6 80 8 12 7 539 2 588 -6 49 -7 95
-14 123 -20 21 -5 22 0 14 66 -2 17 -186 62 -301 73 -144 14 -428 4 -554 -21
-11 -2 -45 -6 -76 -9 -31 -3 -66 -7 -80 -10 -13 -3 -42 -7 -65 -10 -22 -3 -58
-8 -80 -12 -70 -11 -74 -10 -133 25 -176 106 -409 208 -579 253 -102 27 -317
34 -422 15z"/>
<path d="M370 900 c-91 -15 -106 -19 -151 -33 -66 -20 -192 -69 -205 -79 -15
-11 -13 -84 2 -81 6 1 24 5 40 8 16 3 43 8 59 11 17 3 41 7 55 10 140 25 481
19 650 -12 14 -2 41 -6 60 -9 19 -3 46 -7 60 -10 14 -3 41 -8 60 -11 19 -3 43
-7 52 -10 9 -3 25 -7 35 -9 61 -12 126 -28 184 -45 82 -25 88 -25 229 -15 63
4 140 9 170 11 88 4 582 4 620 0 19 -3 71 -7 115 -11 44 -4 83 -9 86 -11 4 -2
29 -6 57 -10 l51 -6 -3 37 c-2 21 -10 41 -17 46 -14 8 -141 44 -194 54 -137
26 -381 26 -670 0 -16 -1 -46 -5 -65 -8 -19 -3 -57 -9 -85 -13 -27 -3 -58 -8
-68 -10 -111 -20 -128 -17 -247 40 -108 51 -263 110 -320 120 -14 2 -25 5 -25
6 0 4 -102 24 -199 39 -72 10 -274 11 -336 1z"/>
<path d="M279 616 c-2 -2 -29 -6 -59 -10 -30 -3 -73 -7 -95 -10 -22 -2 -59
-12 -83 -21 -37 -15 -43 -21 -40 -44 l3 -26 1294 0 c1349 0 1362 0 1268 40
-93 39 -213 46 -882 51 -314 2 -606 7 -650 9 -120 6 -751 16 -756 11z"/>
</g>
</svg>
