<?xml version="1.0" encoding="utf-8"?>
<!-- Generator: Adobe Illustrator 19.0.0, SVG Export Plug-In . SVG Version: 6.00 Build 0)  -->
<svg version="1.1" id="Слой_1" xmlns="http://www.w3.org/2000/svg" xmlns:xlink="http://www.w3.org/1999/xlink" x="0px" y="0px"
	 viewBox="0 0 54.5 54.6" style="enable-background:new 0 0 54.5 54.6;" xml:space="preserve">
<g id="Прямоугольник_61">
	<g id="XMLID_231_">
		<rect id="XMLID_232_" x="22.8" y="9.1" class="st0" width="9.9" height="2.5"/>
	</g>
	<g id="XMLID_225_">
		<path id="XMLID_226_" class="st1" d="M31.7,10.1v0.5h-7.9v-0.5H31.7 M33.7,8.1H21.8v4.5h11.9V8.1L33.7,8.1z"/>
	</g>
</g>
<g id="Прямоугольник_26">
	<g id="XMLID_218_">
		<polygon id="XMLID_219_" class="st0" points="43.7,3.8 42.5,4.9 49.8,12 51,10.8 		"/>
	</g>
</g>
<g id="Многоугольник_1_1_">
	<g id="XMLID_174_">
		<polygon id="XMLID_190_" class="st0" points="26.1,21 23.4,30.6 33.3,28 		"/>
	</g>
</g>
<g id="Прямоугольник_25">
	<g id="XMLID_162_">
		<polygon id="XMLID_171_" class="st0" points="41.1,6.3 27.5,19.6 34.8,26.7 48.4,13.4 		"/>
	</g>
</g>
<polygon id="XMLID_2_" class="st1" points="46.2,50.7 7,50.7 7,9.3 34.8,9.3 34.8,11.3 9,11.3 9,48.7 44.2,48.7 44.2,20.2 
	46.2,20.2 "/>
</svg>
