<?xml version="1.0" encoding="utf-8"?>
<!-- Generator: Adobe Illustrator 19.0.0, SVG Export Plug-In . SVG Version: 6.00 Build 0)  -->
<svg version="1.1" id="Слой_1" xmlns="http://www.w3.org/2000/svg" xmlns:xlink="http://www.w3.org/1999/xlink" x="0px" y="0px"
	 viewBox="-270 393.3 54.5 54.6" style="enable-background:new -270 393.3 54.5 54.6;" xml:space="preserve">

<g id="Прямоугольник_62">
	<g id="XMLID_227_">
		<polygon id="XMLID_228_" class="st0" points="-243.3,429.7 -244.2,400.7 -239.3,400.7 -240.2,429.7 		"/>
	</g>
	<g id="XMLID_219_">
		<path id="XMLID_220_" class="st0" d="M-240.3,401.7l-0.9,27h-1.1l-0.9-27H-240.3 M-238.3,399.7h-7l1,31h5L-238.3,399.7
			L-238.3,399.7z"/>
	</g>
</g>
<g id="Эллипс_6">
	<g id="XMLID_225_">
		<circle id="XMLID_226_" class="st0" cx="-241.8" cy="439.2" r="2.5"/>
	</g>
	<g id="XMLID_190_">
		<path id="XMLID_194_" class="st0" d="M-241.8,437.7c0.8,0,1.5,0.7,1.5,1.5c0,0.8-0.7,1.5-1.5,1.5s-1.5-0.7-1.5-1.5
			C-243.3,438.4-242.6,437.7-241.8,437.7 M-241.8,435.7c-1.9,0-3.5,1.6-3.5,3.5s1.6,3.5,3.5,3.5c1.9,0,3.5-1.6,3.5-3.5
			S-239.8,435.7-241.8,435.7L-241.8,435.7z"/>
	</g>
</g>
<g id="XMLID_49_">
	<polygon id="XMLID_47_" class="st0" points="-249.1,440.5 -262.4,440.5 -262.4,403.7 -249.1,403.7 -249.1,405.7 -260.4,405.7 
		-260.4,438.5 -249.1,438.5 	"/>
</g>
<g id="XMLID_42_">
	<polygon id="XMLID_40_" class="st0" points="-221.4,440.5 -234.7,440.5 -234.7,438.5 -223.4,438.5 -223.4,405.7 -234.7,405.7 
		-234.7,403.7 -221.4,403.7 	"/>
</g>
</svg>
