<svg width="40" height="40" viewBox="0 0 40 40" xmlns="http://www.w3.org/2000/svg">
<path fill-rule="evenodd" clip-rule="evenodd" d="M17.6009 0L11.6216 4.65989L13.8499 6.89237L0.633604 26.7555L2.24906 28.4902L0 30.7436L5.31492 36.0688L7.3809 33.9987L8.73603 35.4536L11.5052 33.6504L16.7864 40L22.3593 37.2084L20.6322 34.5163L23.2456 32.5074L20.5964 27.7297L29.1115 22.1839L31.3494 24.4262L36 18.4352L29.8947 12.3183C30.2898 11.6962 30.5792 10.9126 30.6623 10.0824C30.7835 8.87209 30.4686 7.50886 29.3497 6.38812C28.3508 5.38734 26.9743 5.24339 25.8444 5.36164C24.9962 5.45032 24.1802 5.69452 23.5426 5.95371L17.6009 0ZM27.842 20.9119L15.1209 8.16605L2.87242 26.5747L9.01772 33.1715L27.842 20.9119ZM16.0725 30.6759L12.9921 32.6818L17.2505 37.8022L19.819 36.5153L16.0725 30.6759ZM28.9034 9.90885C28.8627 10.3159 28.7476 10.6959 28.5976 11.0185L24.9182 7.33193C25.2685 7.22911 25.6484 7.14642 26.0294 7.10658C26.9272 7.01276 27.6437 7.1717 28.0941 7.62325C28.7868 8.31729 28.9807 9.13599 28.9034 9.90885ZM31.1829 21.7661L14.2736 4.82397L17.4536 2.34601L33.6561 18.58L31.1829 21.7661ZM20.9681 32.0387L19.6785 33.0301L17.718 29.9742L19.2543 28.9481L20.9681 32.0387ZM5.31492 33.5759L2.48824 30.7436L3.27947 29.9511L6.10614 32.7829L5.31492 33.5759Z" transform="translate(2)"/>
</svg>
