<?xml version="1.0" encoding="utf-8"?>
<!-- Generator: Adobe Illustrator 19.0.0, SVG Export Plug-In . SVG Version: 6.00 Build 0)  -->
<svg version="1.1" id="Слой_1" xmlns="http://www.w3.org/2000/svg" xmlns:xlink="http://www.w3.org/1999/xlink" x="0px" y="0px"
	 viewBox="-267.8 395.5 50 50.1" style="enable-background:new -267.8 395.5 50 50.1;" xml:space="preserve">
<style type="text/css">
	.st0{fill:#010202;}
</style>
<g id="XMLID_2_">
	<path id="XMLID_11_" class="st0" d="M-237.1,434.7h-10.8v-3.5l0.9-0.1c0.5-0.1,0.7-0.2,0.7-0.2s0.1-0.3,0.1-1.1v-9.9
		c0-0.5,0-0.7-0.1-0.8c-0.1,0-0.3-0.1-0.7-0.1h-1v-3.6h1c1.1-0.1,2.2-0.1,3.4-0.2c1.2-0.1,2.4-0.2,3.6-0.3l1.2-0.1v15.1
		c0,0.8,0.1,1,0.1,1.1l0,0c0,0,0.2,0.1,0.7,0.2l0.9,0.1C-237.1,431.3-237.1,434.7-237.1,434.7z M-245,432.5h5.1
		c-0.2-0.1-0.3-0.2-0.4-0.4c-0.4-0.5-0.6-1.3-0.6-2.4V417c-0.9,0.1-1.7,0.2-2.5,0.2c-0.5,0-1.1,0.1-1.6,0.1c0.1,0.1,0.2,0.2,0.3,0.3
		c0.5,0.5,0.7,1.2,0.7,2.3v9.9c0,1.1-0.2,1.9-0.6,2.4C-244.7,432.3-244.8,432.4-245,432.5z M-242.9,414.2c-1.1,0-2.1-0.3-2.8-0.9
		c-0.8-0.7-1.2-1.5-1.2-2.6c0-1,0.4-1.9,1.2-2.6c0.7-0.7,1.7-1,2.8-1c1.1,0,2,0.3,2.8,1c0.8,0.7,1.2,1.6,1.2,2.6s-0.4,1.9-1.2,2.6
		C-240.8,413.9-241.7,414.2-242.9,414.2z M-242.9,409.2c-0.6,0-1,0.1-1.4,0.5c-0.3,0.3-0.5,0.6-0.5,1c0,0.4,0.1,0.7,0.4,1
		c0.3,0.3,0.8,0.4,1.4,0.4s1.1-0.1,1.4-0.4c0.3-0.2,0.4-0.5,0.4-0.9s-0.1-0.7-0.5-1C-241.9,409.4-242.3,409.2-242.9,409.2z"/>
</g>
<path id="XMLID_4_" d="M-221.5,441.9h-42v-42h42V441.9z M-261.4,439.8h37.8v-37.7h-37.8V439.8z"/>
</svg>
