<?xml version="1.0" encoding="utf-8"?>
<!-- Generator: Adobe Illustrator 19.0.0, SVG Export Plug-In . SVG Version: 6.00 Build 0)  -->
<svg version="1.1" id="Слой_1" xmlns="http://www.w3.org/2000/svg" xmlns:xlink="http://www.w3.org/1999/xlink" x="0px" y="0px"
	 viewBox="0 0 54.5 54.6" style="enable-background:new 0 0 54.5 54.6;" xml:space="preserve">

<g id="Прямоугольник_1">
	<g id="XMLID_219_">
		<polygon id="XMLID_220_" class="st0" points="40.6,34.8 45.4,32.5 51.5,45 46.7,47.3 		"/>
	</g>
	<g id="XMLID_173_">
		<path id="XMLID_174_" class="st1" d="M45,33.8l5.2,10.7l-3,1.5L42,35.3L45,33.8 M45.9,31.1l-6.6,3.2l7,14.3l6.6-3.2L45.9,31.1
			L45.9,31.1z"/>
	</g>
</g>
<polygon id="XMLID_39_" class="st1" points="40.7,47.6 4.1,47.6 4.1,4.7 18.7,4.7 18.7,6.7 6.1,6.7 6.1,45.6 40.7,45.6 "/>
<polygon id="XMLID_38_" class="st1" points="21.9,35.2 20.5,34.3 21.9,3.4 23.5,2.7 47.5,22.4 47.2,24.1 34.7,29.7 33.9,27.9 
	44.9,22.9 23.8,5.5 22.6,32.7 29.3,29.8 30.1,31.7 "/>
<polygon id="XMLID_42_" class="st1" points="43.1,35.9 40.4,31.5 34.6,29.9 34,29.4 28.4,17.7 30.2,16.8 35.6,28.1 41.3,29.7 
	41.9,30.1 44.8,34.8 "/>
</svg>
