<?xml version="1.0" encoding="utf-8"?>
<!-- Generator: Adobe Illustrator 19.0.0, SVG Export Plug-In . SVG Version: 6.00 Build 0)  -->
<svg version="1.1" id="Слой_1" xmlns="http://www.w3.org/2000/svg" xmlns:xlink="http://www.w3.org/1999/xlink" x="0px" y="0px"
	 viewBox="0 0 54.5 54.6" style="enable-background:new 0 0 54.5 54.6;" xml:space="preserve">
<g id="Прямоугольник_28">
	<g id="XMLID_47_">
		<rect id="XMLID_49_" x="23.6" y="8" class="st0" width="7" height="38"/>
	</g>
</g>
<polygon id="XMLID_218_" class="st0" points="1.6,8 21.6,8 21.6,10.4 4,10.4 4,17.3 21.6,17.3 21.6,18.3 7.1,18.3 7.1,43.7 
	21.6,43.7 21.6,46 4.7,46 4.7,19.6 1.6,19.6 "/>
<polygon id="XMLID_220_" class="st0" points="52.6,8 32.6,8 32.6,10.4 50.2,10.4 50.2,17.3 32.6,17.3 32.6,18.3 47.1,18.3 
	47.1,43.7 32.6,43.7 32.6,46 49.5,46 49.5,19.6 52.6,19.6 "/>
</svg> 
