<?xml version="1.0" encoding="utf-8"?>
<!-- Generator: Adobe Illustrator 19.0.0, SVG Export Plug-In . SVG Version: 6.00 Build 0)  -->
<svg version="1.1" id="Слой_1" xmlns="http://www.w3.org/2000/svg" xmlns:xlink="http://www.w3.org/1999/xlink" x="0px" y="0px"
	 viewBox="0 0 46.8 46.7" style="enable-background:new 0 0 46.8 46.7;" xml:space="preserve">
<style type="text/css">
	.st0{fill:#010202;}
</style>
<path id="XMLID_4_" d="M23.4,46.8C10.5,46.8,0,36.3,0,23.4S10.5,0,23.4,0s23.4,10.5,23.4,23.4S36.3,46.8,23.4,46.8z M23.4,2
	C11.6,2,2,11.6,2,23.4s9.6,21.4,21.4,21.4s21.4-9.6,21.4-21.4S35.2,2,23.4,2z"/>
<g id="XMLID_9_">
	<path id="XMLID_10_" class="st0" d="M16.3,27.4c2.5,3,5.6,5.4,9.1,7.1c1.3,0.6,3.1,1.4,5.1,1.5c0.1,0,0.2,0,0.4,0
		c1.3,0,2.4-0.5,3.3-1.4c0,0,0,0,0,0c0.3-0.4,0.7-0.7,1-1.1c0.3-0.2,0.5-0.5,0.8-0.7c1.1-1.2,1.1-2.7,0-3.8l-3.2-3.2
		c-0.5-0.6-1.2-0.9-1.9-0.9s-1.3,0.3-1.9,0.9L27,27.7c-0.2-0.1-0.4-0.2-0.5-0.3c-0.2-0.1-0.4-0.2-0.6-0.3c-1.7-1.1-3.3-2.5-4.8-4.4
		c-0.8-1-1.3-1.8-1.6-2.6c0.5-0.5,1-0.9,1.4-1.4c0.2-0.2,0.3-0.3,0.5-0.5c0.6-0.6,0.9-1.2,0.9-1.9c0-0.7-0.3-1.3-0.9-1.9l-1.6-1.6
		c-0.2-0.2-0.4-0.4-0.5-0.6c-0.4-0.4-0.7-0.7-1.1-1.1c-0.6-0.5-1.2-0.8-1.9-0.8c-0.7,0-1.3,0.3-1.9,0.8l-2,2
		c-0.7,0.7-1.1,1.6-1.2,2.6C11,17,11.3,18.3,11.9,20C12.8,22.5,14.2,24.9,16.3,27.4z M12.4,15.8c0.1-0.7,0.3-1.3,0.8-1.8l2-2
		c0.3-0.3,0.7-0.5,1-0.5c0.3,0,0.7,0.2,1,0.5c0.4,0.3,0.7,0.7,1.1,1c0.2,0.2,0.4,0.4,0.6,0.6l1.6,1.6c0.3,0.3,0.5,0.7,0.5,1
		c0,0.3-0.2,0.7-0.5,1c-0.2,0.2-0.3,0.3-0.5,0.5c-0.5,0.5-1,1-1.5,1.4c0,0,0,0,0,0c-0.4,0.4-0.4,0.9-0.3,1.2c0,0,0,0,0,0
		c0.4,1,1,1.9,1.9,3.1c1.6,2,3.3,3.5,5.2,4.7c0.2,0.1,0.5,0.3,0.7,0.4c0.2,0.1,0.4,0.2,0.6,0.3c0,0,0,0,0.1,0
		c0.2,0.1,0.3,0.1,0.5,0.1c0.4,0,0.7-0.3,0.8-0.4l2-2c0.3-0.3,0.6-0.5,1-0.5c0.4,0,0.7,0.3,0.9,0.5l3.2,3.2c0.6,0.6,0.6,1.3,0,2
		c-0.2,0.2-0.5,0.5-0.7,0.7c-0.4,0.4-0.8,0.7-1.1,1.2c-0.6,0.7-1.3,1-2.3,1c-0.1,0-0.2,0-0.3,0c-1.8-0.1-3.4-0.8-4.6-1.4
		c-3.3-1.6-6.2-3.9-8.7-6.8c-2-2.4-3.3-4.6-4.2-7C12.6,18.1,12.4,16.9,12.4,15.8z"/>
</g>
</svg>
