<?xml version="1.0" encoding="utf-8"?>
<!-- Generator: Adobe Illustrator 19.0.0, SVG Export Plug-In . SVG Version: 6.00 Build 0)  -->
<svg version="1.1" id="Слой_1" xmlns="http://www.w3.org/2000/svg" xmlns:xlink="http://www.w3.org/1999/xlink" x="0px" y="0px"
	 viewBox="0 0 139.4 44.7" style="enable-background:new 0 0 139.4 44.7;" xml:space="preserve">
<g id="XMLID_2_">
	<path id="XMLID_2900_" class="st0" d="M52.2,19.5V8.1H57c3.6,0,6.1,2.1,6.1,5.7c0,3.5-2.6,5.7-6.1,5.7H52.2z M60.1,13.8
		c0-1.8-1.1-3.1-3.1-3.1h-1.9v6.2H57C59,16.9,60.1,15.5,60.1,13.8"/>
	<path id="XMLID_2897_" class="st0" d="M64.2,13.8c0-3.4,2.6-5.9,6.1-5.9c3.5,0,6.1,2.4,6.1,5.9c0,3.5-2.6,5.9-6.1,5.9
		C66.8,19.7,64.2,17.3,64.2,13.8 M73.4,13.8c0-1.9-1.2-3.3-3.1-3.3c-1.9,0-3.1,1.4-3.1,3.3c0,1.8,1.2,3.3,3.1,3.3
		C72.2,17.1,73.4,15.7,73.4,13.8"/>
	<path id="XMLID_2894_" class="st0" d="M84.4,19.5l-1.9-3.8H81v3.8h-2.9V8.1h5.7c2.5,0,3.9,1.7,3.9,3.8c0,2-1.2,3-2.3,3.4l2.3,4.2
		H84.4z M84.7,11.9c0-0.8-0.6-1.2-1.4-1.2H81v2.4h2.3C84.1,13.1,84.7,12.7,84.7,11.9"/>
	<path id="XMLID_2891_" class="st0" d="M88.9,13.8c0-3.4,2.6-5.9,6.1-5.9c3.5,0,6.1,2.4,6.1,5.9c0,3.5-2.6,5.9-6.1,5.9
		C91.5,19.7,88.9,17.3,88.9,13.8 M98,13.8c0-1.9-1.2-3.3-3.1-3.3c-1.9,0-3.1,1.4-3.1,3.3c0,1.8,1.2,3.3,3.1,3.3
		C96.8,17.1,98,15.7,98,13.8"/>
	<polygon id="XMLID_2755_" class="st0" points="110.4,19.5 110.4,14.9 105.7,14.9 105.7,19.5 102.7,19.5 102.7,8.1 105.7,8.1 
		105.7,12.4 110.4,12.4 110.4,8.1 113.3,8.1 113.3,19.5 	"/>
	<path id="XMLID_2887_" class="st0" d="M115,13.8c0-3.4,2.6-5.9,6.1-5.9c3.5,0,6.1,2.4,6.1,5.9c0,3.5-2.6,5.9-6.1,5.9
		C117.6,19.7,115,17.3,115,13.8 M124.2,13.8c0-1.9-1.2-3.3-3.1-3.3c-1.9,0-3.1,1.4-3.1,3.3c0,1.8,1.2,3.3,3.1,3.3
		C123,17.1,124.2,15.7,124.2,13.8"/>
	<polygon id="XMLID_2752_" class="st0" points="131.5,19.5 127.2,8.1 130.5,8.1 133.3,16.3 136.1,8.1 139.4,8.1 135.2,19.5 	"/>
	<path id="XMLID_2883_" class="st0" d="M52.2,36.5V25.1H57c3.6,0,6.1,2.1,6.1,5.7c0,3.5-2.6,5.7-6.1,5.7H52.2z M60.1,30.8
		c0-1.8-1.1-3.1-3.1-3.1h-1.9v6.2H57C59,33.9,60.1,32.5,60.1,30.8"/>
	<polygon id="XMLID_2749_" class="st0" points="64.8,36.5 64.8,25.1 73.1,25.1 73.1,27.7 67.8,27.7 67.8,29.5 73,29.5 73,32 
		67.8,32 67.8,33.9 73.1,33.9 73.1,36.5 	"/>
	<path id="XMLID_2748_" class="st0" d="M74.4,34.9l1.5-2.2c0.8,0.8,2.1,1.5,3.6,1.5c1,0,1.6-0.4,1.6-0.9c0-1.5-6.4-0.3-6.4-4.7
		c0-1.9,1.6-3.6,4.5-3.6c1.8,0,3.4,0.5,4.6,1.6l-1.6,2.1c-1-0.8-2.2-1.2-3.3-1.2c-0.8,0-1.2,0.3-1.2,0.8c0,1.4,6.4,0.4,6.4,4.6
		c0,2.3-1.7,3.8-4.7,3.8C77.2,36.7,75.6,36,74.4,34.9"/>
	<rect id="XMLID_2747_" x="85.9" y="25.1" class="st0" width="2.9" height="11.3"/>
	<path id="XMLID_2746_" class="st0" d="M90.6,30.8c0-3.6,2.8-5.9,6.1-5.9c2.5,0,4.1,1.3,4.8,2.8L99.1,29c-0.4-0.7-1.3-1.4-2.4-1.4
		c-1.9,0-3.2,1.4-3.2,3.3c0,1.9,1.3,3.3,3.2,3.3c0.8,0,1.7-0.3,2.1-0.7v-0.9h-2.6V30h5.5v4.5c-1.2,1.3-2.9,2.2-5,2.2
		C93.3,36.7,90.6,34.4,90.6,30.8"/>
	<polygon id="XMLID_2745_" class="st0" points="111.5,36.5 106.7,29.9 106.7,36.5 103.8,36.5 103.8,25.1 106.8,25.1 111.4,31.4 
		111.4,25.1 114.3,25.1 114.3,36.5 	"/>
	<path id="XMLID_2875_" class="st0" d="M17.7,0H0v44.7h17.8c15,0,24.6-8.8,24.6-22.4C42.4,8.7,32.7,0,17.7,0 M17.3,35.7H9.3V9.5h8
		c9.3,0,15.7,3.7,15.7,12.7C33.1,29.7,27.2,35.7,17.3,35.7"/>
	<path id="XMLID_4_" class="st0" d="M19.1,17H17v10.6h2c4,0,6.4-2.4,6.4-5.4C25.4,18.5,22.8,17,19.1,17"/>
</g>
</svg>
