<?xml version="1.0" encoding="utf-8"?>
<!-- Generator: Adobe Illustrator 19.0.0, SVG Export Plug-In . SVG Version: 6.00 Build 0)  -->
<svg version="1.1" id="Слой_1" xmlns="http://www.w3.org/2000/svg" xmlns:xlink="http://www.w3.org/1999/xlink" x="0px" y="0px"
	 viewBox="0 0 106.9 105.6" enable-background="new 0 0 106.9 105.6" xml:space="preserve">
<image display="none" overflow="visible" width="2200" height="1236" xlink:href="../3д-шки/3211111_Interactive LightMix23.jpg"  transform="matrix(0.1419 0 0 0.1419 -102.3743 -37.5407)">
</image>
<path d="M68.7,61h-31V0h31V61z M39.7,59h27V2h-27V59z"/>
<path d="M61,98.1H44.8V59H61V98.1z M46.8,96.1H59V61H46.8V96.1z"/>
<path d="M70.6,105.3H35.7v-9.2h34.9V105.3z M37.7,103.3h30.9v-5.1H37.7V103.3z"/>
<polygon display="none" fill="none" stroke="#000000" stroke-width="2" stroke-miterlimit="10" points="76,48 76,-5.7 112.2,-5.7 
	112.2,0.5 112.2,29.4 105,29.4 105,113.5 81.5,113.5 81.5,48.1 "/>
<polygon points="76,18.7 66.7,18.7 66.7,12.6 68.7,12.6 68.7,16.7 76,16.7 "/>
<polyline display="none" fill="none" stroke="#000000" stroke-width="2" stroke-miterlimit="10" points="37,114.3 120.5,114.3 
	120.5,9.8 112.2,9.8 "/>
<polygon points="90.9,105.3 66.8,105.3 66.8,11.7 91.9,11.7 91.9,59.4 89.9,59.4 89.9,13.7 68.8,13.7 68.8,103.3 90.9,103.3 "/>
<g>
	<rect x="45.6" y="11.1" width="4.3" height="3.9"/>
	<path d="M50.9,16h-6.3v-5.9h6.3V16z M46.6,14h2.3v-1.9h-2.3V14z"/>
</g>
<g>
	<rect x="56.4" y="11.1" width="4.3" height="3.9"/>
	<path d="M61.7,16h-6.3v-5.9h6.3V16z M57.4,14h2.3v-1.9h-2.3V14z"/>
</g>
<g>
	<rect x="45.6" y="19.9" width="4.3" height="3.9"/>
	<path d="M50.9,24.8h-6.3v-5.9h6.3V24.8z M46.6,22.8h2.3v-1.9h-2.3V22.8z"/>
</g>
<g>
	<rect x="56.4" y="19.9" width="4.3" height="3.9"/>
	<path d="M61.7,24.8h-6.3v-5.9h6.3V24.8z M57.4,22.8h2.3v-1.9h-2.3V22.8z"/>
</g>
<g>
	<rect x="45.6" y="28.9" width="4.3" height="3.9"/>
	<path d="M50.9,33.8h-6.3v-5.9h6.3V33.8z M46.6,31.8h2.3v-1.9h-2.3V31.8z"/>
</g>
<g>
	<rect x="56.4" y="28.9" width="4.3" height="3.9"/>
	<path d="M61.7,33.8h-6.3v-5.9h6.3V33.8z M57.4,31.8h2.3v-1.9h-2.3V31.8z"/>
</g>
<g>
	<rect x="45.6" y="37.8" width="4.3" height="3.9"/>
	<path d="M50.9,42.7h-6.3v-5.9h6.3V42.7z M46.6,40.7h2.3v-1.9h-2.3V40.7z"/>
</g>
<g>
	<rect x="56.4" y="37.8" width="4.3" height="3.9"/>
	<path d="M61.7,42.7h-6.3v-5.9h6.3V42.7z M57.4,40.7h2.3v-1.9h-2.3V40.7z"/>
</g>
<g>
	<rect x="45.6" y="46.8" width="4.3" height="3.9"/>
	<path d="M50.9,51.7h-6.3v-5.9h6.3V51.7z M46.6,49.7h2.3v-1.9h-2.3V49.7z"/>
</g>
<g>
	<rect x="56.4" y="46.8" width="4.3" height="3.9"/>
	<path d="M61.7,51.7h-6.3v-5.9h6.3V51.7z M57.4,49.7h2.3v-1.9h-2.3V49.7z"/>
</g>
<g>
	<rect x="77.6" y="21.8" width="4.3" height="3.9"/>
	<path d="M82.9,26.6h-6.3v-5.9h6.3V26.6z M78.6,24.6h2.3v-1.9h-2.3V24.6z"/>
</g>
<g>
	<rect x="77.6" y="30.6" width="4.3" height="3.9"/>
	<path d="M82.9,35.4h-6.3v-5.9h6.3V35.4z M78.6,33.4h2.3v-1.9h-2.3V33.4z"/>
</g>
<g>
	<rect x="77.6" y="39.6" width="4.3" height="3.9"/>
	<path d="M82.9,44.4h-6.3v-5.9h6.3V44.4z M78.6,42.4h2.3v-1.9h-2.3V42.4z"/>
</g>
<g>
	<rect x="77.6" y="48.4" width="4.3" height="3.9"/>
	<path d="M82.9,53.3h-6.3v-5.9h6.3V53.3z M78.6,51.3h2.3v-1.9h-2.3V51.3z"/>
</g>
<polygon points="39.6,18.7 30.3,18.7 30.3,16.7 37.6,16.7 37.6,12.6 39.6,12.6 "/>
<path d="M39.6,105.3H14.4V11.7h25.1V105.3z M16.4,103.3h21.1V13.7H16.4V103.3z"/>
<g>
	<rect x="24.4" y="21.8" width="4.3" height="3.9"/>
	<path d="M29.8,26.7h-6.3v-5.9h6.3V26.7z M25.4,24.7h2.3v-1.9h-2.3V24.7z"/>
</g>
<g>
	<rect x="24.4" y="30.6" width="4.3" height="3.9"/>
	<path d="M29.8,35.5h-6.3v-5.9h6.3V35.5z M25.4,33.5h2.3v-1.9h-2.3V33.5z"/>
</g>
<g>
	<rect x="24.4" y="39.6" width="4.3" height="3.9"/>
	<path d="M29.8,44.5h-6.3v-5.9h6.3V44.5z M25.4,42.5h2.3v-1.9h-2.3V42.5z"/>
</g>
<g>
	<rect x="24.4" y="48.5" width="4.3" height="3.9"/>
	<path d="M29.8,53.3h-6.3v-5.9h6.3V53.3z M25.4,51.3h2.3v-1.9h-2.3V51.3z"/>
</g>
<g>
	<rect x="24.4" y="57.5" width="4.3" height="3.9"/>
	<path d="M29.8,62.3h-6.3v-5.9h6.3V62.3z M25.4,60.3h2.3v-1.9h-2.3V60.3z"/>
</g>
<g>
	<rect x="24.4" y="66.2" width="4.3" height="3.9"/>
	<path d="M29.8,71.1h-6.3v-5.9h6.3V71.1z M25.4,69.1h2.3v-1.9h-2.3V69.1z"/>
</g>
<g>
	<rect x="24.4" y="75.2" width="4.3" height="3.9"/>
	<path d="M29.8,80.1h-6.3v-5.9h6.3V80.1z M25.4,78.1h2.3v-1.9h-2.3V78.1z"/>
</g>
<g>
	<rect x="24.4" y="84.1" width="4.3" height="3.9"/>
	<path d="M29.8,88.9h-6.3v-5.9h6.3V88.9z M25.4,86.9h2.3v-1.9h-2.3V86.9z"/>
</g>
<g>
	<rect x="24.4" y="93.1" width="4.3" height="3.9"/>
	<path d="M29.8,97.9h-6.3v-5.9h6.3V97.9z M25.4,95.9h2.3v-1.9h-2.3V95.9z"/>
</g>
<g>
	<line x1="-1.8" y1="104.6" x2="106.9" y2="104.6"/>
	<rect x="-1.8" y="103.6" width="108.8" height="2"/>
</g>
<path d="M92.6,82.3c5.4,0,9.8-4.4,9.8-9.8s-4.4-9.8-9.8-9.8c0,0,0,0-0.1,0h-8c0,0,0,0,0,0c-1,0-1.7,0.8-1.7,1.7v0v16.1v5.2h-1.7
	c-1,0-1.7,0.8-1.7,1.7s0.8,1.7,1.7,1.7h1.7V99c0,1,0.8,1.7,1.7,1.7c1,0,1.7-0.8,1.7-1.7v-9.8h6.3c1,0,1.7-0.8,1.7-1.7
	s-0.8-1.7-1.7-1.7h-6.3v-3.5L92.6,82.3L92.6,82.3z M92.6,66.1C92.6,66.1,92.6,66.1,92.6,66.1c3.5,0,6.3,2.9,6.3,6.3
	c0,3.5-2.8,6.3-6.3,6.3h-6.3V66.1H92.6z"/>
</svg>
