<?xml version="1.0" encoding="utf-8"?>
<!-- Generator: Adobe Illustrator 19.0.0, SVG Export Plug-In . SVG Version: 6.00 Build 0)  -->
<svg version="1.1" id="Слой_1" xmlns="http://www.w3.org/2000/svg" xmlns:xlink="http://www.w3.org/1999/xlink" x="0px" y="0px"
	 viewBox="0 0 40 40" style="enable-background:new 0 0 40 40;" xml:space="preserve">
<g id="Фигура_15_копия">
	<g id="XMLID_215_">
		<path id="XMLID_216_" class="st0" d="M13.4,4.1l5,5.1v24.6h-5V4.1 M13,2.3l-0.7,0.4v32h7v-26L13,2.3L13,2.3z"/>
	</g>
</g>
<g id="Фигура_18_копия">
	<g id="XMLID_210_">
		<path id="XMLID_211_" class="st0" d="M31.4,9.8v7h-2v-7H31.4 M32.4,8.8h-4v9h4V8.8L32.4,8.8z"/>
	</g>
</g>
<path id="XMLID_12_" class="st1" d="M27.1,20.1"/>
<rect id="XMLID_72_" x="28.5" y="16.2" transform="matrix(0.7071 0.7071 -0.7071 0.7071 21.9073 -14.9724)" class="st0" width="1" height="5.4"/>
<rect id="XMLID_71_" x="29.6" y="16.7" transform="matrix(0.7071 0.7071 -0.7071 0.7071 22.9333 -15.401)" class="st0" width="1" height="6.5"/>
<rect id="XMLID_70_" x="30.6" y="17.7" transform="matrix(0.7071 0.7071 -0.7071 0.7071 23.9333 -15.8152)" class="st0" width="1" height="6.5"/>
<rect id="XMLID_69_" x="31.6" y="19.4" transform="matrix(0.7071 0.7071 -0.7071 0.7071 24.9233 -16.2546)" class="st0" width="1" height="5.1"/>
<path id="XMLID_192_" class="st0" d="M30.6,24.4c-2.2,0-3.9-1.8-3.9-3.9c0-2.2,1.8-3.9,3.9-3.9c2.2,0,3.9,1.8,3.9,3.9
	C34.5,22.7,32.7,24.4,30.6,24.4z M30.6,17.6c-1.6,0-2.9,1.3-2.9,2.9c0,1.6,1.3,2.9,2.9,2.9s2.9-1.3,2.9-2.9
	C33.4,18.9,32.1,17.6,30.6,17.6z"/>
<rect id="XMLID_11_" x="4.4" y="8.6" class="st2" width="31" height="2.3"/>
<rect id="XMLID_37_" x="24.4" y="30.8" class="st2" width="11.9" height="4"/>
<rect id="XMLID_53_" x="28.9" y="23.9" class="st2" width="3" height="2.9"/>
<rect id="XMLID_57_" x="9.9" y="34.3" class="st2" width="12" height="1.5"/>
<rect id="XMLID_58_" x="7.9" y="35.3" class="st2" width="16" height="3"/>
<path id="XMLID_193_" class="st3" d="M30.4,26.2l3.5,3.5l-7.1,0L30.4,26.2 M30.4,24.8l-6,6l11.9,0L30.4,24.8L30.4,24.8z"/>
<path id="XMLID_194_" class="st3" d="M12.6,2.9l15.9,4.7H7.1L12.6,2.9 M12.4,1.8l-8,6.8h31L12.4,1.8L12.4,1.8z"/>
<path id="XMLID_74_" class="st3" d="M13.4,4.1l5,5.1l0,26h-5V4.1 M12.4,2.3v33.9h7l0-27.5l-5.8-5.9L12.4,2.3L12.4,2.3z"/>
<polygon id="XMLID_82_" class="st3" points="15.8,36.6 15.1,35.9 17.6,33.3 13,33.3 12.6,32.4 17.6,27.4 12.9,27.4 12.5,26.6 
	17.6,21.5 12.8,21.5 12.4,20.6 17.6,15.4 12.8,15.4 12.4,14.5 17.1,9.9 12.9,9.9 12.9,8.9 18.3,8.9 18.6,9.8 14,14.4 18.8,14.4 
	19.2,15.2 14,20.5 18.8,20.5 19.2,21.3 14.1,26.4 18.8,26.4 19.2,27.3 14.2,32.3 18.8,32.3 19.2,33.1 "/>
</svg>
