<?xml version="1.0" encoding="utf-8"?>
<!-- Generator: Adobe Illustrator 19.0.0, SVG Export Plug-In . SVG Version: 6.00 Build 0)  -->
<svg version="1.1" id="Слой_1" xmlns="http://www.w3.org/2000/svg" xmlns:xlink="http://www.w3.org/1999/xlink" x="0px" y="0px"
	 viewBox="0 0 41.3 41.4" style="enable-background:new 0 0 41.3 41.4;" xml:space="preserve">
<g id="Прямоугольник_48">
	<g id="XMLID_110_">
		<polygon id="XMLID_115_" class="st0" points="26.1,9.8 26.1,41 30.4,41 30.4,7.7 		"/>
	</g>
</g>
<polygon id="XMLID_28_" class="st1" points="6.2,9.4 6.2,6.4 16.2,0.6 16.2,4 "/>
<polygon id="XMLID_37_" class="st1" points="6.2,12 16.2,7.1 16.2,10.5 6.2,14.9 "/>
<polygon id="XMLID_38_" class="st1" points="6.2,20.8 6.2,17.5 16.2,13.5 16.2,17.4 "/>
<polygon id="XMLID_39_" class="st1" points="6.2,26.7 6.2,23.4 16.2,20.5 16.2,24.4 "/>
<polygon id="XMLID_40_" class="st1" points="6.2,32.6 6.2,29.3 16.2,27.4 16.2,31.3 "/>
<polygon id="XMLID_41_" class="st1" points="6.2,40.7 6.2,35.2 16.2,34.3 16.2,40.8 "/>
<polygon id="XMLID_42_" class="st1" points="17.5,41 17.5,34.5 24.8,35.2 24.8,40.8 "/>
<polygon id="XMLID_43_" class="st1" points="17.5,31.4 17.5,27.5 24.8,29.1 24.8,32.5 "/>
<polygon id="XMLID_44_" class="st1" points="17.5,24.5 17.5,20.6 24.8,23.1 24.8,26.5 "/>
<polygon id="XMLID_45_" class="st1" points="17.5,17.5 17.5,13.6 24.8,17.1 24.8,20.5 "/>
<polygon id="XMLID_46_" class="st1" points="17.5,10.6 17.5,7.1 24.8,11.5 24.8,14.5 "/>
<polygon id="XMLID_47_" class="st1" points="17.5,4.1 17.5,0.6 24.8,5.8 24.8,8.8 "/>
<polygon id="XMLID_49_" class="st1" points="31.3,10.5 31.3,7.7 37.4,12 37.4,14.5 "/>
<polygon id="XMLID_50_" class="st1" points="31.3,15.9 31.3,13 37.4,16.6 37.4,19.1 "/>
<polygon id="XMLID_54_" class="st1" points="31.3,21.6 31.3,18.4 37.4,21.3 37.4,24.1 31.4,21.7 "/>
<polygon id="XMLID_52_" class="st1" points="31.3,27.4 31.3,24.1 37.4,26.2 37.4,29 "/>
<polygon id="XMLID_55_" class="st1" points="31.3,33.1 31.3,29.9 37.4,31.2 37.4,34 "/>
<polygon id="XMLID_56_" class="st1" points="31.3,41 31.3,35.6 37.4,36.2 37.4,40.8 "/>
</svg>
