<?xml version="1.0" encoding="utf-8"?>
<!-- Generator: Adobe Illustrator 19.0.0, SVG Export Plug-In . SVG Version: 6.00 Build 0)  -->
<svg version="1.1" id="Слой_1" xmlns="http://www.w3.org/2000/svg" xmlns:xlink="http://www.w3.org/1999/xlink" x="0px" y="0px"
	 viewBox="0 0 500 500" style="enable-background:new 0 0 500 500;" xml:space="preserve">
<g id="XMLID_4_">
	<g id="XMLID_5_">
		<path id="XMLID_9_" d="M187.3,500h-56.9c-5.9,0-11.1-2.1-15-6c-3.9-3.9-6-9.1-6-15v-55.3H43.2c-5.9,0-11.1-2.1-15-6
			c-3.9-3.9-6-9.1-6-15V359c0-5.9,2.1-11,6-15c3.9-3.9,9.1-6,15-6h66.2v-20H43.2c-5.9,0-11.1-2.1-15-6c-3.9-3.9-6-9.1-6-15v-50.8
			c0-5.5,2-10.6,5.8-14.6c4-4.2,9.2-6.4,15.2-6.4h66.2V21c0-5.9,2.1-11,6-15c4-4,9.2-6,15-6h183.7c47.9,0,87.7,14.9,118.3,44.4
			C463,74,478.6,112.5,478.6,159c0,46.5-15.5,85.1-46.2,114.6C401.8,303.1,362,318,314.1,318H208.4v20h162c5.9,0,11.1,2.1,15,6.1
			c3.9,3.9,6,9.1,6,15v43.6c0,5.9-2.1,11-6,15c-3.9,3.9-9.1,6-15,6h-162V479c0,6-2.2,11.2-6.4,15.2C197.9,498,192.9,500,187.3,500z
			 M42.6,403.4c0,0,0.2,0.1,0.6,0.1h86.4V479c0,0.4,0,0.6,0.1,0.7l-5.8,8.3l5.9-8.2c0,0,0.2,0.1,0.6,0.1h56.9c0.3,0,0.4,0,0.7-0.3
			l0.1-0.1c0,0,0-0.2,0-0.4v-75.5h182.2c0.4,0,0.6-0.1,0.7-0.1l8.3,5.8l-8.2-5.9c0,0,0.1-0.2,0.1-0.6V359c0-0.4-0.1-0.6-0.1-0.7
			l5.8-8.3l-5.9,8.2c0,0-0.1-0.1-0.6-0.1H188.1v-60.4h126c43.1,0,77.2-12.7,104.2-38.7c26.9-26,40-58.7,40-100.1
			c0-41.3-13.1-74.1-40-100.1c-26.7-25.7-61.7-38.7-104.2-38.7H130.4c-0.5,0-0.7,0.1-0.7,0.1l-0.1,0.1c0,0-0.1,0.2-0.1,0.6v224.4
			H43.2c-0.3,0-0.4,0-0.5,0c0,0,0,0,0,0c-0.3,0.3-0.3,0.4-0.3,0.7V297c0,0.4,0.1,0.6,0.1,0.7l-5.9,8.3l6-8.2c0,0,0,0,0,0
			c0,0,0.2,0,0.6,0h86.4v60.4H43.2c-0.5,0-0.6,0.1-0.7,0.1l-0.1,0.1c0,0-0.1,0.2-0.1,0.6v43.6C42.4,403.1,42.5,403.3,42.6,403.4
			l-6,8.2L42.6,403.4L42.6,403.4z M307.3,245.5H188.1V72.6h119.2c26.7,0,48.6,8,65.2,23.9c16.8,16,25.3,37,25.3,62.5
			c0,25.5-8.5,46.5-25.3,62.5C355.9,237.4,333.9,245.5,307.3,245.5z M208.4,225.2h98.9c21.6,0,38.4-6,51.3-18.3
			c12.8-12.2,19-27.9,19-47.9c0-20-6.2-35.7-19-47.9c-12.9-12.3-29.7-18.3-51.3-18.3h-98.9V225.2z"/>
	</g>
</g>
</svg>
