<?xml version="1.0" encoding="utf-8"?>
<!-- Generator: Adobe Illustrator 19.0.0, SVG Export Plug-In . SVG Version: 6.00 Build 0)  -->
<svg version="1.1" id="Слой_1" xmlns="http://www.w3.org/2000/svg" xmlns:xlink="http://www.w3.org/1999/xlink" x="0px" y="0px"
	 viewBox="0 0 500 500" enable-background="new 0 0 500 500" xml:space="preserve">
<g id="XMLID_2_">
	<path id="XMLID_8_" d="M254.1,500c-45.9,0-84.7-38.8-84.7-84.7s38.8-84.7,84.7-84.7c45.9,0,84.7,38.8,84.7,84.7S300,500,254.1,500z
		 M254.1,351c-34.8,0-64.3,29.4-64.3,64.3c0,34.8,29.4,64.3,64.3,64.3c34.8,0,64.3-29.4,64.3-64.3C318.4,380.5,289,351,254.1,351z
		 M201.9,335.7c-3.2,0-6.3-1.5-8.3-4.2c-13.4-18.4-20.7-44-20.7-72.1c0-54.8,36.5-80,60.6-96.6c6.1-4.2,16.3-11.2,17.3-14.2
		c0-1.2-0.2-1.3-0.8-1.7c-1.2-0.8-5.2-2.6-16.2-2.6c-14,0-36.7,9-53.2,26.1c-2,2.1-4.8,3.2-7.6,3.1c-2.9-0.1-5.6-1.3-7.4-3.5
		l-78-89.8c-3.4-3.9-3.3-9.8,0.3-13.7C127,24.9,187.5,0,250,0c48.3,0,89.1,11.1,117.8,32.2c29.8,21.8,45.5,52.9,45.5,90.1
		c0,63-38.5,92.3-66.7,113.7c-19.9,15.2-32.2,25.1-32.2,38.8c0,9.7,3.6,17.2,5.3,19.2c2.3,2.7,3,6.4,1.8,9.8
		c-1.1,3.4-3.9,5.9-7.4,6.7l-110,25.1C203.4,335.6,202.7,335.7,201.9,335.7z M233.9,123.9c12.3,0,21,1.8,27.2,5.8
		c4.7,3,10.2,8.7,10.2,19c0,12.9-11.5,20.8-26.1,30.9c-23.1,15.9-51.8,35.7-51.8,79.8c0,21,4.7,40.1,13.2,54.6l90.4-20.6
		c-1.7-5.3-2.9-11.6-2.9-18.7c0-24.5,19.5-39.3,40.2-55c27.5-20.9,58.6-44.5,58.6-97.4c0-62.8-54.8-101.9-142.9-101.9
		c-53.5,0-105.4,19.9-140.6,53.6l64.8,74.7C192,133.6,215,123.9,233.9,123.9z"/>
</g>
</svg>
