<?xml version="1.0" encoding="utf-8"?>
<!-- Generator: Adobe Illustrator 19.0.0, SVG Export Plug-In . SVG Version: 6.00 Build 0)  -->
<svg version="1.1" id="Capa_1" xmlns="http://www.w3.org/2000/svg" xmlns:xlink="http://www.w3.org/1999/xlink" x="0px" y="0px"
	 viewBox="-113 114.2 32.8 32.8" style="enable-background:new -113 114.2 32.8 32.8;" xml:space="preserve">
<g>
	<polygon style="opacity:0.7;fill:#FFFFFF;" points="-109.9,146.3 -111.7,144.3 -111.7,118.4 -81.7,118.4 -81.7,141.1 -86.9,146.3 	"/>
	<g>
		<path style="fill:#235AA3;" d="M-83.6,115.4h-1.1c0-0.1,0.1-0.2,0.1-0.3c0-0.5-0.4-1-1-1s-1,0.4-1,1c0,0.1,0,0.2,0.1,0.3h-3.7
			c0-0.1,0.1-0.2,0.1-0.3c0-0.5-0.4-1-1-1c-0.5,0-1,0.4-1,1c0,0.1,0,0.2,0.1,0.3h-3.7c0-0.1,0.1-0.2,0.1-0.3c0-0.5-0.4-1-1-1
			s-1,0.4-1,1c0,0.1,0,0.2,0.1,0.3h-3.7c0-0.1,0.1-0.2,0.1-0.3c0-0.5-0.4-1-1-1c-0.5,0-1,0.4-1,1c0,0.1,0,0.2,0.1,0.3h-3.7
			c0-0.1,0.1-0.2,0.1-0.3c0-0.5-0.4-1-1-1s-1,0.4-1,1c0,0.1,0,0.2,0.1,0.3h-1.1c-1.5,0-2.8,1.2-2.8,2.8v26c0,1.5,1.2,2.8,2.8,2.8
			h22.9l5.9-5.9v-22.9C-80.9,116.6-82.1,115.4-83.6,115.4z M-82.4,140.4l-0.3,0.3H-85c-1.1,0-2,0.9-2,2v2.4l-0.3,0.3h-22.3
			c-0.7,0-1.3-0.6-1.3-1.3v-25h28.5C-82.4,119.1-82.4,140.4-82.4,140.4z"/>
	</g>
</g>
</svg>
